<svg width="189" height="69" viewBox="0 0 189 69" fill="none" xmlns="http://www.w3.org/2000/svg">
<path d="M15.55 14.6703C15.55 14.6703 12.82 14.5503 9.46004 18.7203C9.46004 18.7203 8.43005 20.4002 6.36005 19.9102C6.36005 19.9102 4.45004 19.6602 3.21004 15.5702C3.21004 15.5702 1.80004 9.76014 1.96004 7.30014C1.96004 7.30014 1.76005 0.460264 11.12 2.18026C11.12 2.18026 17.37 2.84012 27.15 8.53012C27.15 8.53012 32.99 12.2102 42.4 5.91024C42.4 5.91024 47.58 2.14007 54.33 2.23007H60.21C60.21 2.23007 64.93 2.19021 68.17 3.87021C68.17 3.87021 73.18 6.29014 77.61 3.30014C77.61 3.30014 80.05 1.42007 80.84 2.73007C80.84 2.73007 83.2 7.69024 75.87 11.1602C75.87 11.1602 73.2601 12.6302 63.6901 11.3702C63.6901 11.3702 51.9701 9.61025 45.8801 15.6703C45.8801 15.6703 41.8601 19.9301 34.5701 19.7301C34.5701 19.7301 29.14 19.6101 26.33 20.5101C26.33 20.5101 28.07 30.0101 28.15 30.9901C28.15 30.9901 31.3801 26.8901 34.0301 30.7401C34.0301 30.7401 38.42 24.1001 44.05 31.0601C44.05 31.0601 49.68 19.4301 60.45 30.4901C60.45 30.4901 64.84 23.5302 71.05 25.1602C71.05 25.1602 71.46 18.2803 78.34 18.4503C78.34 18.4503 85.1601 18.5001 83.5601 27.0501C83.5601 27.0501 91.26 20.6601 97.64 25.4901C97.64 25.4901 101.78 11.5701 105.42 11.7301C105.42 11.7301 108.4 10.8302 112.05 22.6202C112.05 22.6202 113.62 9.44018 120.25 10.3402C120.25 10.3402 128.53 10.9101 123.15 32.0401L127.96 25.8202C127.96 25.8202 134.64 15.1803 144.94 22.7103L149.66 18.6202C149.66 18.6202 153.22 24.2702 157.53 23.6202L163.24 14.5301L173.76 21.5702L169.2 28.9403C169.2 28.9403 174.34 54.5702 182.46 49.8202L187.59 63.6602C187.59 63.6602 172.18 71.1901 165.89 51.7901L162.16 39.3402L153.96 48.8402C153.96 48.8402 152.13 50.6501 149.85 49.0601C148.7 48.2701 148.45 46.2201 148.79 42.7401C148.79 42.7401 145.47 43.6401 144.15 41.0201C144.15 41.0201 138.48 54.8203 125.97 43.4303C125.97 43.4303 123.94 49.8202 119.84 50.0702C119.84 50.0702 115.74 50.5202 115.37 42.3702C115.37 42.3702 109.74 53.5902 104.85 42.8602L103.94 44.8302C103.94 44.8302 100.87 51.6301 93.67 53.0201L93.18 49.5802C93.18 49.5802 87.09 52.2402 81.62 46.3902C81.62 46.3902 81.6201 54.0902 78.3501 54.3302C78.3501 54.3302 74.79 55.3101 74.37 45.0001L70.9701 45.8202L68.4 58.7601C68.4 58.7601 67.7 63.1001 64.34 63.0201C64.34 63.0201 60.9401 63.1501 61.0301 58.2301L61.45 45.8702C61.45 45.8702 50.39 60.9803 42.27 49.9603C42.27 49.9603 37.43 58.9302 32.7 53.1102C32.7 53.1102 30.55 50.6501 29.06 42.7901C29.06 42.7901 26 47.7902 25.83 55.4002C25.83 55.4002 25.87 59.7403 22.39 59.4503C22.39 59.4503 16.88 59.1202 18.7 47.5802C18.7 47.5802 20.36 39.3102 18.45 33.3702C18.45 33.3402 14.23 23.7603 15.55 14.6703Z" fill="#FAEC00"/>
<path d="M8.33007 1.91016C9.15007 1.91016 10.0801 2.00019 11.1201 2.19019C11.1201 2.19019 17.3701 2.85004 27.1501 8.54004C27.1501 8.54004 28.8501 9.61011 31.8801 9.61011C34.4801 9.61011 38.06 8.83017 42.39 5.92017C42.39 5.92017 47.4501 2.22998 54.0901 2.22998C54.1601 2.22998 54.2401 2.22998 54.3101 2.22998H60.1901C60.1901 2.22998 60.2001 2.22998 60.2201 2.22998C60.6401 2.22998 65.06 2.27012 68.14 3.87012C68.14 3.87012 70.0501 4.79004 72.5601 4.79004C74.1101 4.79004 75.89 4.44004 77.58 3.29004C77.58 3.29004 78.9201 2.25 79.9401 2.25C80.2901 2.25 80.6101 2.38021 80.8101 2.71021C80.8101 2.71021 83.1701 7.67014 75.8401 11.1401C75.8401 11.1401 74.5601 11.8601 70.5301 11.8601C68.7901 11.8601 66.54 11.7301 63.67 11.3401C63.67 11.3401 62.0901 11.1001 59.7801 11.1001C55.8101 11.1001 49.7101 11.8001 45.8601 15.6401C45.8601 15.6401 42.0301 19.7002 35.0601 19.7002C34.8901 19.7002 34.7301 19.7002 34.5601 19.6902C34.5601 19.6902 34.3001 19.6802 33.8801 19.6802C32.3301 19.6802 28.5301 19.7602 26.3201 20.4602C26.3201 20.4602 28.06 29.9602 28.14 30.9402C28.14 30.9402 29.6401 29.04 31.4301 29.04C32.2701 29.04 33.1801 29.4602 34.0301 30.6902C34.0301 30.6902 35.9201 27.8401 38.8101 27.8401C40.3301 27.8401 42.1201 28.63 44.0501 31.02C44.0501 31.02 46.6401 25.6802 51.6601 25.6802C54.0501 25.6802 56.9801 26.8902 60.4601 30.4502C60.4601 30.4502 63.97 24.8701 69.17 24.8701C69.78 24.8701 70.4101 24.9501 71.0701 25.1201C71.0701 25.1201 71.4701 18.4001 78.1201 18.4001C78.2001 18.4001 78.28 18.4001 78.36 18.4001C78.36 18.4001 85.18 18.45 83.58 27C83.58 27 87.64 23.6401 92.3 23.6401C94.06 23.6401 95.9101 24.1202 97.6601 25.4502C97.6601 25.4502 101.75 11.6902 105.38 11.6902C105.4 11.6902 105.42 11.6902 105.44 11.6902C105.44 11.6902 105.49 11.6702 105.59 11.6702C106.24 11.6702 108.91 12.3501 112.07 22.5801C112.07 22.5801 113.54 10.25 119.63 10.25C119.84 10.25 120.05 10.26 120.27 10.29C120.27 10.29 128.55 10.86 123.17 31.99L127.98 25.77C127.98 25.77 131.63 19.9602 137.68 19.9602C139.82 19.9602 142.27 20.6902 144.96 22.6602L149.68 18.5701C149.68 18.5701 152.86 23.6201 156.85 23.6201C157.08 23.6201 157.32 23.6001 157.55 23.5701L163.26 14.48L173.78 21.52L169.22 28.8901C169.22 28.8901 173.53 50.3601 180.48 50.3601C181.12 50.3601 181.79 50.18 182.48 49.77L187.61 63.6101C187.61 63.6101 184.67 65.05 180.83 65.05C175.89 65.05 169.45 62.66 165.91 51.74L162.18 39.29L153.98 48.79C153.98 48.79 153.1 49.6602 151.79 49.6602C151.22 49.6602 150.56 49.49 149.86 49.01C148.71 48.22 148.46 46.1702 148.8 42.6902C148.8 42.6902 148.25 42.8401 147.51 42.8401C146.43 42.8401 144.94 42.5202 144.16 40.9702C144.16 40.9702 141.32 47.8901 135.22 47.8901C132.7 47.8901 129.63 46.7101 125.98 43.3901C125.98 43.3901 123.95 49.78 119.85 50.03C119.85 50.03 119.81 50.03 119.74 50.03C119.08 50.03 115.72 49.6701 115.38 42.3301C115.38 42.3301 112.8 47.4602 109.62 47.4602C108.1 47.4602 106.44 46.2901 104.86 42.8201L103.95 44.79C103.95 44.79 100.88 51.59 93.6801 52.98L93.1901 49.54C93.1901 49.54 91.8101 50.1401 89.7701 50.1401C87.5301 50.1401 84.5001 49.4101 81.6301 46.3401C81.6301 46.3401 81.63 54.04 78.36 54.28C78.36 54.28 78.27 54.3101 78.11 54.3101C77.3 54.3101 74.7301 53.6202 74.3801 44.9502L70.98 45.77L68.4101 58.7102C68.4101 58.7102 67.7201 62.9702 64.4401 62.9702C64.4101 62.9702 64.3801 62.9702 64.3501 62.9702C64.3501 62.9702 64.3401 62.9702 64.3301 62.9702C64.0301 62.9702 60.9601 62.8602 61.0401 58.1802L61.4601 45.8201C61.4601 45.8201 55.5201 53.9302 49.1501 53.9302C46.8301 53.9302 44.4501 52.8502 42.2801 49.9102C42.2801 49.9102 39.5201 55.02 36.1301 55.02C35.0301 55.02 33.8701 54.4801 32.7101 53.0601C32.7101 53.0601 30.5601 50.6 29.0701 42.74C29.0701 42.74 26.0101 47.7401 25.8401 55.3501C25.8401 55.3501 25.8801 59.4202 22.7201 59.4202C22.6201 59.4202 22.5101 59.4202 22.4001 59.4102C22.4001 59.4102 16.8901 59.08 18.7101 47.54C18.7101 47.54 20.3701 39.2701 18.4601 33.3301C18.4601 33.3301 14.2301 23.7502 15.5601 14.6602C15.5601 14.6602 15.5501 14.6602 15.5301 14.6602C15.2501 14.6602 12.6301 14.7702 9.47007 18.7102C9.47007 18.7102 8.68006 19.99 7.11006 19.99C6.88006 19.99 6.63006 19.9601 6.37006 19.9001C6.37006 19.9001 4.46006 19.6501 3.22006 15.5601C3.22006 15.5601 1.81006 9.75004 1.97006 7.29004C1.97006 7.30004 1.81007 1.91016 8.33007 1.91016ZM8.33007 0.940186C5.92007 0.940186 4.04006 1.6202 2.75006 2.9502C1.08006 4.6702 1.01006 6.88002 1.01006 7.27002C0.850058 9.86002 2.22006 15.55 2.28006 15.79L2.29006 15.8201L2.30005 15.8501C3.59005 20.1201 5.70006 20.7601 6.17006 20.8601C6.49006 20.9301 6.80006 20.9702 7.11006 20.9702C8.73006 20.9702 9.83006 19.94 10.2601 19.29C11.9901 17.15 13.5 16.2601 14.45 15.9001C13.68 24.4701 17.2101 32.8902 17.5601 33.6902C19.3401 39.3202 17.7801 47.2901 17.7601 47.3701V47.3901V47.4102C16.9401 52.5902 17.4401 56.3401 19.2201 58.5601C20.5501 60.2101 22.09 60.3801 22.33 60.4001C22.46 60.4101 22.5901 60.4202 22.7201 60.4202C23.7701 60.4202 24.6801 60.0501 25.3701 59.3601C26.7501 57.9601 26.8001 55.7201 26.8001 55.4001C26.8901 51.2401 27.89 47.88 28.73 45.76C30.12 51.39 31.7701 53.4802 31.9701 53.7202C33.2201 55.2502 34.6201 56.03 36.1301 56.03C38.9401 56.03 41.2501 53.2601 42.3801 51.6101C44.3501 53.8201 46.6201 54.9402 49.1501 54.9402C53.7801 54.9402 58.0601 51.1401 60.4001 48.6201L60.0801 58.2002C60.0501 60.2202 60.5401 61.75 61.5401 62.77C62.6701 63.92 64.0701 63.98 64.3301 63.98C64.3401 63.98 64.3401 63.98 64.3501 63.98C64.3801 63.98 64.41 63.98 64.45 63.98C67.68 63.98 69.07 60.6902 69.36 58.9302L71.8 46.6101L73.4701 46.2102C73.7001 49.4902 74.2901 51.9202 75.2401 53.4402C76.2701 55.0802 77.4701 55.3201 78.1001 55.3201C78.2601 55.3201 78.4001 55.3 78.4901 55.29C81.3201 55.02 82.2001 51.07 82.4701 48.5C85.1501 50.66 87.8401 51.1602 89.7601 51.1602C90.8201 51.1602 91.73 51.0101 92.39 50.8501L92.7201 53.1702L92.86 54.1702L93.8501 53.98C101.46 52.51 104.69 45.54 104.82 45.24L104.9 45.0601C106.27 47.3401 107.85 48.49 109.61 48.49C111.74 48.49 113.54 46.7702 114.72 45.2202C115.78 50.7402 119.01 51.0601 119.73 51.0601C119.82 51.0601 119.89 51.06 119.92 51.05C123.37 50.83 125.47 47.1301 126.37 45.0801C129.46 47.6301 132.43 48.9202 135.21 48.9202C140.13 48.9202 143.08 44.9901 144.33 42.8101C145.14 43.5001 146.23 43.8701 147.5 43.8701C147.58 43.8701 147.66 43.8701 147.74 43.8701C147.54 47.2101 148.01 48.9801 149.31 49.8801C150.1 50.4201 150.93 50.7002 151.78 50.7002C153.44 50.7002 154.53 49.67 154.65 49.55L154.68 49.52L154.7 49.49L161.75 41.3201L164.97 52.0801V52.0901V52.1001C168.72 63.6501 175.65 66.0801 180.81 66.0801C184.83 66.0801 187.89 64.61 188.02 64.54L188.8 64.1602L188.5 63.3401L183.37 49.5L182.97 48.4202L181.98 49C181.46 49.31 180.96 49.4602 180.47 49.4602C178.1 49.4602 175.5 45.8701 173.14 39.3601C171.53 34.9201 170.51 30.4301 170.23 29.1301L174.58 22.0901L175.07 21.3L174.3 20.78L163.78 13.74L162.96 13.1902L162.43 14.03L156.97 22.7202C156.92 22.7202 156.88 22.7202 156.83 22.7202C153.43 22.7202 150.5 18.1701 150.47 18.1201L149.87 17.1702L149.02 17.9001L144.87 21.5C142.46 19.88 140.04 19.0601 137.65 19.0601C131.35 19.0601 127.55 24.68 127.16 25.28L125.04 28.02C126.54 20.33 126.15 14.86 123.89 11.73C122.42 9.69998 120.68 9.43015 120.35 9.40015C120.1 9.37015 119.85 9.3501 119.61 9.3501C115.02 9.3501 112.79 15.0002 111.79 18.9102C109.14 11.9202 106.81 10.77 105.57 10.77C105.48 10.77 105.41 10.78 105.34 10.78C103.36 10.79 101.43 13.16 99.2501 18.24C98.2901 20.47 97.5301 22.67 97.1001 23.99C95.6301 23.15 94.0101 22.73 92.2701 22.73C89.2301 22.73 86.4701 24.0301 84.7501 25.0601C84.8301 22.9001 84.32 21.1501 83.23 19.8301C81.35 17.5501 78.4601 17.5 78.3401 17.5C78.2701 17.5 78.1801 17.5 78.0901 17.5C72.8601 17.5 70.7701 21.32 70.2201 24.04C69.8601 23.99 69.5 23.9702 69.14 23.9702C64.83 23.9702 61.6501 27.33 60.3101 29.03C57.3201 26.2 54.41 24.77 51.64 24.77C47.62 24.77 45.0401 27.7202 43.8801 29.4502C42.2501 27.7802 40.5401 26.9302 38.7901 26.9302C36.5901 26.9302 34.9201 28.28 34.0001 29.25C33.0601 28.35 32.1101 28.1401 31.4101 28.1401C30.4001 28.1401 29.5001 28.5701 28.8001 29.0601C28.4101 26.7401 27.7301 22.9802 27.4101 21.2202C29.5301 20.7502 32.5501 20.7002 33.8601 20.7002C34.2701 20.7002 34.5101 20.7102 34.5201 20.7102C34.6901 20.7102 34.8701 20.7202 35.0501 20.7202C42.2201 20.7202 46.2401 16.6801 46.5401 16.3701C50.0801 12.8601 55.6901 12.1201 59.7701 12.1201C61.9701 12.1201 63.5001 12.3401 63.5201 12.3501C66.1601 12.7001 68.5101 12.8801 70.5301 12.8801C74.4401 12.8801 75.9701 12.2101 76.2701 12.0601C79.1601 10.6801 81.0101 8.91003 81.7701 6.78003C82.6201 4.38003 81.7201 2.4301 81.6801 2.3501L81.6601 2.31006L81.64 2.27002C81.28 1.67002 80.6801 1.34009 79.9401 1.34009C78.7001 1.34009 77.3401 2.31006 77.0201 2.56006C75.7201 3.43006 74.2101 3.87012 72.5601 3.87012C70.3801 3.87012 68.7001 3.11005 68.5701 3.05005C65.3001 1.36005 60.7301 1.31006 60.2201 1.31006H60.1801H54.3101C54.2401 1.31006 54.1701 1.31006 54.0901 1.31006C47.3401 1.31006 42.2301 4.89017 41.8401 5.17017C38.3501 7.50017 35.0001 8.69019 31.8801 8.69019C29.2001 8.69019 27.6701 7.77001 27.6601 7.76001L27.6501 7.75L27.64 7.73999C18.09 2.17999 11.8701 1.34002 11.2701 1.27002C10.2201 1.04002 9.23007 0.940186 8.33007 0.940186Z" fill="currentColor"/>
<path d="M10.6601 11.0201C10.6601 11.0201 13.0901 15.9302 7.68008 16.5902C7.68008 16.5902 3.59008 16.8103 4.59008 8.95031C4.59008 8.95031 5.25007 3.05013 15.6401 5.02013C15.6401 5.02013 21.0501 6.55029 25.8001 9.93029C25.8001 9.93029 29.4401 12.7201 35.5201 12.0001C35.5201 12.0001 41.0401 11.5102 45.2901 8.07018C45.2901 8.07018 51.0301 2.39029 60.9201 4.68029C60.9201 4.68029 73.4001 8.61018 78.3701 4.57018C78.3701 4.57018 77.8201 11.5603 59.5901 8.17028C59.5901 8.17028 53.0201 6.75013 46.7801 11.7701C46.7801 11.7701 39.2701 17.6702 33.0801 17.3402C33.0801 17.3402 26.7801 18.1103 20.2701 13.1903C15.3101 9.1603 10.6601 11.0201 10.6601 11.0201Z" fill="#B01630"/>
<path d="M18.6201 13.4702C18.6201 13.4702 20.9401 15.5701 23.3401 16.8801C23.3401 16.8801 22.3101 20.1501 24.0901 23.8401C24.0901 23.8401 27.3201 29.8602 25.9101 38.9102C25.9101 38.9102 25.4101 42.3101 24.5001 45.6301C24.5001 45.6301 22.9201 50.7901 23.3401 55.3701C23.3401 55.3701 23.4401 55.71 22.6501 55.77C22.6501 55.77 21.95 55.8502 21.89 55.4102C21.89 55.4102 20.9301 46.8301 22.1501 41.6401C22.1501 41.6401 23.7501 34.0402 20.5601 28.1802C20.5701 28.1802 16.6701 21.7502 18.6201 13.4702Z" fill="#B01630"/>
<path d="M60.0901 36.62C59.7001 29.37 52.8501 29.2499 52.8501 29.2499C48.5301 29.2099 47.2701 32.0401 46.9101 33.4401C45.0501 34.1801 43.8201 35.2699 43.0301 36.4899C43.0301 36.1399 42.9601 35.8 42.9601 35.8C41.5801 25.26 34.4501 34.7101 34.4501 34.7101L31.9601 32.09L28.5901 36.1901C31.6001 40.4201 33.3901 48.03 33.3901 48.03C34.1001 51.83 36.0901 51.4201 36.0901 51.4201C38.8501 51.0601 37.8601 47.9201 37.8601 47.9201C36.7001 44.3201 36.7001 41.04 36.7001 41.04C36.7801 34.49 39.4601 34.11 39.4601 34.11C40.3901 33.88 40.8401 35.04 40.8401 35.04C41.6001 37.38 42.3201 37.3499 42.5701 37.2599C40.7001 41.0699 42.4401 45.7399 42.4401 45.7399C45.4201 53.3299 51.9401 50.7599 51.9401 50.7599C60.7601 46.6599 60.0901 36.62 60.0901 36.62ZM56.1201 40.55C53.8001 46.61 49.8801 46.4999 49.8801 46.4999C46.4001 46.4999 46.0701 42.8901 46.0701 42.8901C45.2401 38.3101 49.9901 38.2001 49.9901 38.2001L49.6601 32.7101C50.6101 31.9901 51.4801 31.9799 51.4801 31.9799C53.2701 31.6799 55.0301 32.65 55.8201 33.59C57.8601 36.04 56.1201 40.55 56.1201 40.55Z" fill="#B01630"/>
<path d="M67.7101 28.1002C67.7101 28.1002 65.2801 28.5403 61.5801 33.3903C61.5801 33.3903 64.0601 35.6902 63.8401 42.8402C63.8401 42.8402 63.9201 57.1702 63.9201 59.3002C63.9201 59.3002 63.8601 60.0103 64.6101 59.9303C64.6101 59.9303 65.0501 59.9003 65.2201 59.1703C65.2201 59.1703 67.4901 46.9401 67.8701 42.5201C67.8701 42.5201 74.3901 43.6403 74.2801 34.4403C74.2801 34.4403 74.0601 26.3002 67.7101 28.1002ZM68.0501 39.8402C68.0001 36.5702 67.1701 34.2701 67.1701 34.2701C70.4801 30.1701 70.7001 35.4203 70.7001 35.4203C70.8301 40.2803 68.0501 39.8402 68.0501 39.8402Z" fill="#B01630"/>
<path d="M74.6201 26.0301C74.6201 26.0301 75.6101 20.08 79.0901 21.99C79.0901 21.99 82.2701 23.5003 80.3801 26.4703C80.3801 26.4703 79.3001 27.9402 78.0401 25.8702L74.6201 26.0301Z" fill="#B01630"/>
<path d="M75.17 29.3L80.9701 29.1902L79.2 50.6501L77.1601 50.7102L75.17 29.3Z" fill="#B01630"/>
<path d="M96.0401 29.4203L93.2801 33.5702C93.2801 33.5702 90.4301 30.5401 87.1801 34.2501C87.1801 34.2501 83.5901 38.1801 86.6501 42.7401C86.6501 42.7401 87.9801 44.6801 90.4101 43.9901C90.4101 43.9901 92.7901 43.1201 93.7801 40.5001L95.7701 41.4303C95.7701 41.4303 92.1801 51.1501 84.4001 45.8001C84.4001 45.8001 81.0001 43.5601 81.2501 38.2701C81.2501 38.2701 81.3601 29.5402 89.4801 27.6302C89.4701 27.6102 93.0101 26.6003 96.0401 29.4203Z" fill="#B01630"/>
<path d="M95.55 49.9899L99.7501 39.8901C99.7501 39.8901 100.88 37.43 101.18 33.56L102.78 19.2002C102.78 19.2002 102.97 15.8999 104.99 15.7299C104.99 15.7299 106.67 15.1801 107.81 18.9201C107.81 18.9201 109.93 25.5001 110.79 33.8801L117.64 16.25C117.64 16.25 118.55 13.9002 119.68 13.9602C119.68 13.9602 121.5 13.6901 121.55 16.9101L122.05 44.8601C122.05 44.8601 122.05 46.3401 120.34 46.4401C120.34 46.4401 118.36 46.6001 118.24 44.8601L118.52 25.59L113.55 39.08C113.55 39.08 112.19 42.68 110.18 42.79C110.18 42.79 107.2 43.0601 106.64 39.6201L104.93 27.7202L103.99 34.1101C103.99 34.1101 103.33 37.5501 101.94 40.1201C101.95 40.1201 98.53 46.6099 95.55 49.9899Z" fill="#B01630"/>
<path d="M179.99 53.8201C175.56 55.4601 173.64 49.4001 173.64 49.4001C172.16 45.2301 171.15 41.9202 171.15 41.9202C169.23 35.3202 166.19 31.9701 164.05 30.3301C167.28 26.3001 170.1 22.8101 170.1 22.8101L163.86 17.79C163.15 19.82 160.42 24.4501 158.49 27.6001C150.21 23.8201 149.66 21.3901 149.66 21.3901L148.17 21.5C147.97 26.36 155.14 29.9802 156.59 30.6602C156.54 30.7402 156.52 30.78 156.52 30.78C150 40.28 151.05 44.6501 151.05 44.6501C151.27 46.0201 151.82 46.1301 151.82 46.1301C152.59 46.4001 152.93 45.4202 152.93 45.4202C153.56 43.6302 154.58 42.2002 154.58 42.2002C155.15 41.4402 158.15 37.7002 161.35 33.7102C164.32 36.4002 165.35 40.6802 165.35 40.6802C166.77 46.2602 168.17 50.5601 168.17 50.5601C172.45 64.5701 183.58 61.9202 183.58 61.9202L179.99 53.8201Z" fill="#B01630"/>
<path d="M151.16 33.8402C151.16 33.8402 150.63 36.9802 148.78 36.9002C148.78 36.9002 144.64 37.0101 144.26 26.2501C144.26 26.2501 144.2 23.6901 141.77 25.3201C141.77 25.3201 134.34 23.1902 130.17 26.6302C130.17 26.6302 124.23 30.9102 125.92 37.8802C125.92 37.8802 127.3 44.2203 134.87 43.9403C134.87 43.9403 140.28 44.0202 143.21 35.3702C143.21 35.3702 146.19 39.4102 149.12 39.1402C149.12 39.1402 151.55 39.0303 151.94 33.9503L151.16 33.8402ZM138.55 36.9503C134.86 43.0303 131.18 37.7203 131.18 37.7203C129.5 35.0003 131.63 31.6102 131.63 31.6102C133.92 28.0002 139.91 30.23 139.91 30.23C140.31 33.83 138.55 36.9503 138.55 36.9503Z" fill="#B01630"/>
<path d="M178.62 30.55C178.62 32.07 177.39 33.29 175.83 33.29C174.27 33.29 173.03 32.08 173.03 30.55C173.03 29.02 174.27 27.8301 175.85 27.8301C177.39 27.8301 178.62 29.02 178.62 30.55ZM173.72 30.55C173.72 31.76 174.63 32.7202 175.84 32.7202C177.02 32.7402 177.91 31.7601 177.91 30.5701C177.91 29.3601 177.01 28.3801 175.8 28.3801C174.63 28.3701 173.72 29.35 173.72 30.55ZM175.4 31.9602H174.77V29.24C175.02 29.21 175.37 29.1602 175.81 29.1602C176.32 29.1602 176.56 29.2401 176.74 29.3801C176.91 29.5001 177.02 29.6902 177.02 29.9602C177.02 30.2902 176.77 30.5101 176.46 30.6101V30.6401C176.72 30.7201 176.86 30.94 176.94 31.3C177.02 31.71 177.09 31.8602 177.14 31.9602H176.48C176.4 31.8602 176.35 31.63 176.26 31.3C176.21 31.02 176.05 30.8901 175.7 30.8901H175.4V31.9602ZM175.41 30.4302H175.71C176.06 30.4302 176.34 30.31 176.34 30.03C176.34 29.78 176.16 29.6201 175.76 29.6201C175.59 29.6201 175.48 29.6401 175.41 29.6501V30.4302Z" fill="currentColor"/>
<path d="M74.6501 64.1501C74.7201 63.8701 74.8301 63.5599 74.9701 63.2299C75.1101 62.8999 75.2701 62.58 75.4701 62.27C75.6601 61.96 75.8801 61.6601 76.1101 61.3801C76.3501 61.1001 76.5901 60.8601 76.8601 60.6701C77.2901 60.4101 77.7601 60.1799 78.2701 59.9799C78.7801 59.7899 79.2701 59.6901 79.7501 59.7001C80.2301 59.7101 80.6701 59.83 81.0701 60.09C81.4701 60.34 81.7701 60.7901 81.9901 61.4201C82.0301 61.5501 81.9801 61.7101 81.8401 61.8901C81.7001 62.0701 81.5001 62.2799 81.2401 62.4899C80.9901 62.7099 80.6901 62.9401 80.3501 63.1701C80.0101 63.4001 79.6701 63.6401 79.3201 63.8901C78.9701 64.1301 78.6301 64.3801 78.3101 64.6101C77.9901 64.8401 77.7201 65.07 77.4901 65.28C77.4601 65.39 77.4501 65.5301 77.4601 65.6801C77.4701 65.8401 77.5001 65.9901 77.5401 66.1501C77.5901 66.3001 77.6501 66.44 77.7401 66.55C77.8301 66.67 77.9301 66.74 78.0701 66.77C78.3101 66.9 78.5701 66.99 78.8701 67.02C79.1701 67.06 79.4701 67.0399 79.7801 66.9799C80.0901 66.9199 80.3901 66.8201 80.6701 66.6801C80.9601 66.5401 81.2101 66.3701 81.4301 66.1501C81.6501 65.9401 81.8101 65.6901 81.9301 65.4301C82.0401 65.1601 82.0801 64.87 82.0401 64.56C82.0501 64.57 82.0901 64.56 82.1601 64.54C82.2301 64.52 82.3101 64.5002 82.3901 64.4602C82.4701 64.4302 82.5401 64.4001 82.6001 64.3801C82.6601 64.3501 82.6901 64.3501 82.6901 64.3501C82.7601 64.9701 82.6201 65.52 82.2801 66C81.9301 66.48 81.4701 66.8701 80.8901 67.1901C80.3101 67.5001 79.6601 67.7301 78.9401 67.8601C78.2201 67.9901 77.5201 68.0201 76.8401 67.9401C76.4401 67.9501 76.0801 67.8601 75.7501 67.6701C75.4201 67.4801 75.1501 67.2201 74.9401 66.8801C74.7301 66.5401 74.6001 66.1401 74.5401 65.6701C74.4601 65.2301 74.5101 64.7101 74.6501 64.1501ZM75.6301 63.1901C75.5701 63.2201 75.5001 63.2901 75.4401 63.4001C75.3701 63.5101 75.3101 63.62 75.2501 63.75C75.1901 63.88 75.1301 64.0001 75.0901 64.1201C75.0401 64.2401 75.0201 64.3301 75.0101 64.4001C75.0001 64.4201 75.0201 64.4001 75.0601 64.3501C75.1001 64.3001 75.1601 64.2401 75.2201 64.1801C75.2801 64.1201 75.3401 64.07 75.3801 64.02C75.4301 63.98 75.4501 63.9602 75.4501 63.9702C75.4701 63.9002 75.4901 63.7901 75.5101 63.6501C75.5301 63.5101 75.5601 63.39 75.5901 63.31V63.28C75.5901 63.28 75.5901 63.27 75.6001 63.27L75.6101 63.26C75.6101 63.26 75.6201 63.2399 75.6301 63.2299C75.6201 63.2099 75.6301 63.2001 75.6301 63.1901ZM75.4001 64.8501C75.4001 64.9201 75.4201 64.9699 75.4701 64.9899C75.5201 65.0099 75.5801 65.03 75.6601 65.05C75.7101 64.91 75.7501 64.7902 75.7701 64.7102C75.8001 64.6202 75.8101 64.5201 75.8101 64.4001C75.8101 64.3801 75.8101 64.35 75.8001 64.32C75.8001 64.29 75.7901 64.27 75.7901 64.26C75.7001 64.33 75.6101 64.42 75.5201 64.53C75.4401 64.63 75.4001 64.7401 75.4001 64.8501ZM75.4301 65.83C75.4201 65.86 75.4201 65.9099 75.4301 65.9899C75.4401 66.0599 75.4601 66.1499 75.4801 66.2399C75.5001 66.3299 75.5201 66.4099 75.5501 66.4899C75.5701 66.5699 75.6001 66.6201 75.6201 66.6401L75.6401 65.6601C75.5101 65.7001 75.4501 65.75 75.4301 65.83ZM76.4701 62.78C76.4601 62.76 76.4401 62.8101 76.4301 62.9201C76.4101 63.0301 76.3901 63.1701 76.3701 63.3501C76.3501 63.5201 76.3301 63.7101 76.3101 63.9201C76.2901 64.1301 76.2701 64.32 76.2601 64.5C76.2501 64.68 76.2401 64.8201 76.2401 64.9401C76.2301 65.0501 76.2401 65.1 76.2601 65.09C76.2801 65.08 76.3001 65.0201 76.3201 64.9101C76.3401 64.8001 76.3601 64.6599 76.3801 64.4899C76.4001 64.3199 76.4201 64.1402 76.4301 63.9602C76.4401 63.7702 76.4601 63.5901 76.4701 63.4201C76.4801 63.2501 76.4901 63.1099 76.4901 62.9899C76.4801 62.8699 76.4801 62.8 76.4701 62.78ZM76.3001 65.6601C76.2801 65.6801 76.2701 65.7501 76.2901 65.8701C76.3001 65.9901 76.3101 66.12 76.3301 66.26C76.3501 66.4 76.3601 66.5201 76.3801 66.6301C76.4001 66.7401 76.4001 66.78 76.4001 66.76C76.4001 66.74 76.4001 66.67 76.3901 66.54C76.3801 66.41 76.3801 66.2801 76.3701 66.1401C76.3601 66.0001 76.3501 65.88 76.3401 65.78C76.3201 65.68 76.3101 65.6401 76.3001 65.6601ZM76.9401 61.7399C76.9501 61.9699 76.9701 62.1901 76.9901 62.3901C77.0101 62.5901 77.0301 62.7799 77.0701 62.9799C77.1001 63.1699 77.1401 63.37 77.1801 63.57C77.2201 63.77 77.2701 63.9902 77.3201 64.2202C77.4001 64.1502 77.5801 64.0501 77.8501 63.9201C78.1201 63.7901 78.4001 63.6499 78.7101 63.4799C79.0101 63.3099 79.3001 63.1201 79.5701 62.9001C79.8401 62.6801 80.0101 62.4401 80.1001 62.1901C80.1601 61.9301 80.1501 61.7 80.0601 61.51C79.9701 61.32 79.8401 61.18 79.6501 61.07C79.4701 60.96 79.2501 60.8901 79.0101 60.8601C78.7701 60.8301 78.5201 60.8401 78.2601 60.9001C78.0101 60.9601 77.7601 61.0601 77.5301 61.2001C77.2901 61.3301 77.0901 61.5099 76.9401 61.7399ZM77.0601 66.9001C77.0401 66.9601 77.0401 67.02 77.0701 67.07C77.1001 67.12 77.1501 67.1601 77.2201 67.1801H77.3001L76.9901 65.3901C77.0001 65.6601 77.0101 65.9101 77.0201 66.1401L77.0601 66.9001ZM80.6301 61.1701C80.6601 61.1701 80.6601 61.1501 80.6201 61.1101C80.5801 61.0701 80.5401 61.0299 80.4801 60.9799C80.4201 60.9299 80.3601 60.89 80.3001 60.84C80.2501 60.79 80.2201 60.7499 80.2301 60.7299L79.8001 60.79L80.6301 61.1701ZM80.4001 60.1901C80.4301 60.3301 80.4701 60.4299 80.5201 60.4799C80.5701 60.5299 80.6501 60.57 80.7501 60.58C80.8001 60.6 80.8601 60.6101 80.9101 60.6101C80.9701 60.6101 81.0201 60.57 81.0701 60.5C81.0001 60.41 80.9301 60.35 80.8601 60.31C80.7901 60.28 80.7001 60.2499 80.6001 60.2299C80.5801 60.2299 80.5501 60.2202 80.5001 60.2102C80.4501 60.2202 80.4201 60.2001 80.4001 60.1901Z" fill="currentColor"/>
<path d="M83.4701 68L85.8201 64.27L83.05 60.6501L85.2701 59.6902L86.7501 63.05L88.5301 59.6902L89.7201 60.4102L87.2401 64.1802C87.5901 65.1302 87.9101 65.8501 88.2201 66.3501C88.5301 66.8501 88.8001 67.1901 89.0301 67.3701C89.2601 67.5501 89.4601 67.61 89.6301 67.55C89.7901 67.48 89.9101 67.3602 89.9701 67.1702C90.0401 66.9902 90.0501 66.7801 90.0001 66.5601C89.9501 66.3301 89.85 66.15 89.67 66.01C89.68 66.02 89.7101 66.01 89.7501 65.99C89.7901 65.96 89.8301 65.9401 89.8801 65.9001C89.9201 65.8701 89.9701 65.8401 90.0101 65.8201C90.0501 65.8001 90.0701 65.79 90.0701 65.8C90.3901 66.22 90.5401 66.5902 90.5401 66.9202C90.5401 67.2502 90.4501 67.5102 90.2601 67.7002C90.0801 67.8902 89.84 68 89.55 68.03C89.26 68.06 88.98 67.98 88.7 67.8C88.27 67.51 87.9001 67.1402 87.6001 66.7002C87.2901 66.2602 86.99 65.78 86.7 65.25L85.2601 68H83.4701ZM84.2901 61.8801C84.3001 61.9601 84.3401 62.0401 84.4101 62.1201C84.4801 62.2001 84.56 62.26 84.64 62.29C84.69 62.13 84.7301 61.96 84.7501 61.79C84.7801 61.62 84.77 61.45 84.73 61.28C84.62 61.3 84.5101 61.38 84.4001 61.5C84.3001 61.63 84.2601 61.7501 84.2901 61.8801ZM85.7 65.77C85.46 65.88 85.2901 66.0701 85.1901 66.3401C85.0801 66.6101 85.0301 66.8701 85.0301 67.1101L85.17 67.0801L85.7 65.77ZM85.2101 61.1602C85.2701 61.1102 85.32 61.0402 85.36 60.9402C85.39 60.8402 85.4001 60.7502 85.3801 60.6602C85.3801 60.6302 85.37 60.6101 85.36 60.6001L85.2101 61.1602ZM85.36 62.01C85.36 62.03 85.35 62.0701 85.33 62.1201C85.31 62.1701 85.2901 62.22 85.2701 62.27C85.2501 62.32 85.2401 62.3601 85.2401 62.4001C85.2401 62.4401 85.26 62.46 85.3 62.48C85.34 62.36 85.3601 62.2602 85.3501 62.1802C85.3401 62.1002 85.3301 62.0001 85.3101 61.8901C85.3001 61.8701 85.3101 61.8802 85.3201 61.9202C85.3401 61.9602 85.3501 61.9702 85.3501 61.9502C85.3201 61.9802 85.3001 61.99 85.2901 61.99C85.2801 61.99 85.2801 61.9802 85.2801 61.9602C85.2901 61.9502 85.2901 61.9402 85.3101 61.9502C85.3401 61.9402 85.36 61.96 85.36 62.01ZM85.7501 61.3601C85.6401 61.7001 85.61 62.0401 85.67 62.3901C85.68 62.4101 85.6801 62.4202 85.6601 62.4102C85.6401 62.4102 85.64 62.4202 85.64 62.4502C85.73 62.2802 85.7901 62.13 85.8201 62C85.8501 61.87 85.8401 61.72 85.7901 61.55C85.7901 61.53 85.7801 61.5002 85.7801 61.4602C85.7701 61.4102 85.7601 61.3801 85.7501 61.3601ZM85.73 63.24C85.75 63.38 85.7901 63.5001 85.8401 63.5801C85.8901 63.6701 85.9901 63.7701 86.1301 63.8901C86.2101 63.8601 86.2501 63.81 86.2501 63.74C86.2401 63.67 86.2301 63.6 86.2101 63.54C86.1901 63.43 86.1501 63.3002 86.1001 63.1602C86.0401 63.0202 85.95 62.9301 85.8 62.8801C85.73 62.9101 85.7 62.96 85.7 63.03C85.7 63.11 85.71 63.18 85.73 63.24ZM87.0901 64.78C87.0501 64.78 87.03 64.8101 87.05 64.8601C87.06 64.9101 87.08 64.9302 87.11 64.9202C87.16 64.9002 87.1801 64.8701 87.1801 64.8401C87.1701 64.8001 87.1401 64.78 87.0901 64.78ZM87.3401 65.3701C87.3201 65.3801 87.3101 65.4102 87.3201 65.4502C87.3201 65.5002 87.3401 65.51 87.3701 65.5C87.4001 65.49 87.4101 65.4602 87.4001 65.4202C87.3901 65.3802 87.3701 65.3601 87.3401 65.3701ZM87.5001 65.5C87.4601 65.5 87.44 65.5201 87.45 65.5601C87.46 65.6001 87.4901 65.6101 87.5301 65.6101C87.5501 65.6001 87.56 65.58 87.55 65.53C87.55 65.49 87.5301 65.48 87.5001 65.5ZM87.6301 65.6602C87.6501 65.7702 87.7201 65.8401 87.8501 65.8701L87.8 65.6301L87.6301 65.6602ZM87.9901 65.9202C88.0201 65.9102 88.04 65.9302 88.05 65.9702C88.06 66.0202 88.0401 66.04 88.0001 66.04C87.9601 66.06 87.9401 66.05 87.9301 65.99C87.9301 65.95 87.9501 65.9202 87.9901 65.9202ZM88.6501 60.3601C88.5901 60.4301 88.5401 60.5101 88.4901 60.5901C88.4501 60.6701 88.43 60.7601 88.45 60.8501C88.55 60.8301 88.6301 60.7802 88.6801 60.7102C88.7301 60.6402 88.77 60.56 88.8 60.48L88.6501 60.3601Z" fill="currentColor"/>
<path d="M90.8801 65.4502C90.7401 64.7802 90.7401 64.1501 90.8801 63.5601C91.0201 62.9701 91.2601 62.4302 91.5901 61.9602C91.9201 61.4802 92.3201 61.08 92.7801 60.74C93.2401 60.41 93.7301 60.16 94.2401 60C94.7501 59.84 95.2602 59.7801 95.7602 59.8201C96.2702 59.8601 96.7201 60.0201 97.1101 60.2901C97.5101 60.5601 97.8301 60.96 98.0701 61.48C98.3101 62.01 98.4401 62.67 98.4401 63.49C98.4201 64.16 98.2501 64.7902 97.9401 65.3602C97.6301 65.9402 97.2402 66.4301 96.7602 66.8301C96.2902 67.2401 95.7601 67.54 95.1901 67.74C94.6101 67.94 94.0501 68.0002 93.5001 67.9202C92.9501 67.8402 92.4401 67.6102 91.9701 67.2102C91.5201 66.8302 91.1501 66.2302 90.8801 65.4502ZM91.9801 63.0501C91.7901 63.2101 91.6401 63.3801 91.5301 63.5501C91.4201 63.7201 91.3701 63.9302 91.3701 64.2002C91.4701 64.2002 91.5601 64.1601 91.6401 64.0801C91.7201 64.0001 91.7801 63.9001 91.8301 63.7901C91.8801 63.6801 91.9201 63.5602 91.9401 63.4402C91.9701 63.3202 91.9801 63.2202 91.9801 63.1302V63.0501ZM91.7101 64.6702C91.7101 64.8502 91.7201 65.0102 91.7401 65.1402C91.7601 65.2702 91.8401 65.4201 91.9801 65.5801C92.0301 65.3301 92.0901 65.0801 92.1701 64.8501C92.2401 64.6201 92.2801 64.3701 92.2801 64.1001C92.2301 64.1001 92.1901 64.0901 92.1701 64.0701C92.1501 64.0501 92.1401 64.0301 92.1301 64.0101C92.1201 64.0001 92.1101 63.99 92.1001 63.99C92.0801 63.99 92.0601 64.0101 92.0201 64.0401C92.0201 64.0601 92.0001 64.1002 91.9701 64.1602C91.9301 64.2202 91.9001 64.2901 91.8601 64.3501C91.8201 64.4201 91.7901 64.4801 91.7501 64.5501C91.7301 64.6201 91.7101 64.6602 91.7101 64.6702ZM91.8501 65.9602C91.8301 65.9502 91.8101 65.96 91.8001 65.99C91.7901 66.02 91.7902 66.0501 91.7902 66.0901C91.7902 66.1301 91.7901 66.1602 91.8001 66.1902C91.8101 66.2202 91.8201 66.2303 91.8501 66.2203C91.8901 66.2003 91.9101 66.1601 91.9101 66.0901C91.9101 66.0201 91.8901 65.9802 91.8501 65.9602ZM92.5001 62.1402C92.3901 62.1302 92.3101 62.1502 92.2801 62.2002C92.2501 62.2502 92.2301 62.3202 92.2301 62.4002C92.2301 62.4202 92.2301 62.45 92.2401 62.48C92.2401 62.51 92.2501 62.5301 92.2501 62.5301C92.3101 62.5001 92.3701 62.4502 92.4301 62.4002C92.4901 62.3502 92.5201 62.2802 92.5201 62.2002L92.5001 62.1402ZM92.4101 66.3501C92.3501 66.4301 92.3101 66.5001 92.3001 66.5501C92.2801 66.6001 92.2801 66.6701 92.2801 66.7601L92.5901 66.8702C92.5901 66.7802 92.5801 66.6901 92.5601 66.6001C92.5301 66.5201 92.4801 66.4301 92.4101 66.3501ZM93.5402 61.1902C93.4302 61.2402 93.3201 61.3802 93.2201 61.6102C93.1201 61.8402 93.0301 62.1202 92.9501 62.4602C92.8801 62.8002 92.8201 63.1701 92.7801 63.5701C92.7401 63.9801 92.7402 64.3801 92.7602 64.7701C92.7802 65.1601 92.8301 65.5302 92.9201 65.8802C93.0001 66.2302 93.1301 66.5103 93.3001 66.7203C93.4601 66.9303 93.6701 67.0602 93.9301 67.1102C94.1901 67.1602 94.5001 67.0802 94.8701 66.8802C95.1901 66.6302 95.4401 66.2801 95.6401 65.8201C95.8401 65.3601 95.9801 64.8802 96.0501 64.3602C96.1201 63.8502 96.1301 63.3401 96.0701 62.8301C96.0101 62.3301 95.8801 61.9001 95.6701 61.5701C95.4701 61.2301 95.1901 61.0102 94.8401 60.9102C94.4801 60.8102 94.0502 60.9002 93.5402 61.1902ZM94.3501 60.3602C94.3201 60.3602 94.3101 60.3802 94.3101 60.4202C94.3101 60.4602 94.3301 60.48 94.3501 60.48C94.3801 60.48 94.4001 60.4602 94.4001 60.4202C94.4001 60.3802 94.3901 60.3602 94.3501 60.3602ZM94.7501 60.2901C94.7601 60.2501 94.7401 60.23 94.6801 60.23C94.6201 60.23 94.6001 60.2501 94.6101 60.2901C94.6201 60.3401 94.6401 60.3702 94.6701 60.3702C94.7101 60.3602 94.7301 60.3401 94.7501 60.2901ZM95.4101 60.2901C95.4501 60.3401 95.5201 60.4201 95.6201 60.5301C95.7201 60.6401 95.8301 60.7602 95.9401 60.8802C96.0501 61.0002 96.1602 61.12 96.2602 61.24C96.3602 61.36 96.4301 61.44 96.4701 61.48C96.4801 61.5 96.5101 61.5502 96.5701 61.6202C96.6301 61.7002 96.6801 61.7802 96.7401 61.8702C96.7901 61.9602 96.8501 62.0502 96.9001 62.1202C96.9501 62.2002 96.9801 62.2501 96.9901 62.2701C97.0101 62.2801 97.0401 62.3001 97.0701 62.3301C97.1001 62.3601 97.1201 62.3802 97.1301 62.3902V62.3301C97.1301 62.2501 97.1101 62.1401 97.0601 62.0201C97.0201 61.8901 96.9601 61.7702 96.9001 61.6502C96.8401 61.5302 96.7801 61.4101 96.7301 61.3101C96.6701 61.2001 96.6301 61.1301 96.6001 61.0901C96.5701 61.0301 96.5201 60.9602 96.4601 60.8702C96.4001 60.7802 96.3402 60.7002 96.2902 60.6102C96.2402 60.5202 96.1701 60.4201 96.0801 60.3001H95.4101V60.2901ZM95.8101 66.6102C95.9601 66.5302 96.1001 66.4 96.2201 66.23C96.3401 66.06 96.4401 65.8702 96.5201 65.6602C96.6001 65.4602 96.6601 65.2501 96.7001 65.0301C96.7401 64.8101 96.7602 64.6202 96.7602 64.4402C96.7602 64.4002 96.7501 64.3202 96.7401 64.2002C96.7301 64.0802 96.7301 64.01 96.7301 63.98C96.6501 64.38 96.5201 64.7802 96.3401 65.2002C96.1601 65.6202 95.9801 66.0001 95.8101 66.3501V66.6102ZM97.2602 62.6702C97.2102 62.6502 97.1801 62.6703 97.1801 62.7203C97.1801 62.7803 97.2102 62.8001 97.2602 62.7901C97.3002 62.7801 97.3201 62.76 97.3201 62.73C97.3201 62.7 97.3002 62.6802 97.2602 62.6702Z" fill="currentColor"/>
<path d="M100.91 68.03L100.05 59.8701C99.9901 59.8901 99.8701 59.9102 99.6901 59.9102C99.5101 59.9102 99.3201 59.9202 99.1301 59.9202C98.9301 59.9202 98.7401 59.9202 98.5601 59.9302C98.3801 59.9402 98.2601 59.9402 98.2001 59.9502V59.3501L100.03 59.3201L99.1701 53.0701L102.49 52.9502L102.17 59.1802L104.46 59.1201L104.41 59.6902L102.18 59.78L101.78 68.05L100.91 68.03ZM100.01 53.6401C100.02 53.9001 100.03 54.2 100.05 54.51C100.06 54.83 100.08 55.1402 100.09 55.4602C100.11 55.7802 100.13 56.0801 100.15 56.3701C100.18 56.6601 100.2 56.9201 100.23 57.1401L100.34 57.8101C100.34 57.6001 100.34 57.3002 100.33 56.9302C100.32 56.5602 100.32 56.16 100.31 55.75C100.3 55.34 100.28 54.94 100.26 54.55C100.24 54.16 100.21 53.8501 100.17 53.6201L100.01 53.6401ZM100.27 58.0701C100.24 58.0401 100.22 58.0702 100.22 58.1602C100.22 58.2502 100.23 58.3502 100.25 58.4702C100.27 58.5902 100.29 58.69 100.31 58.78C100.33 58.87 100.35 58.9001 100.37 58.8701C100.39 58.8401 100.4 58.7902 100.4 58.7102C100.4 58.6402 100.39 58.5602 100.38 58.4702C100.36 58.3902 100.35 58.31 100.33 58.23C100.31 58.15 100.29 58.1001 100.27 58.0701ZM100.33 59.3801C100.31 59.3701 100.3 59.3802 100.29 59.4102C100.28 59.4402 100.28 59.47 100.29 59.51C100.29 59.55 100.3 59.5801 100.32 59.6101C100.33 59.6401 100.35 59.6501 100.37 59.6401C100.41 59.6201 100.43 59.58 100.42 59.51C100.41 59.45 100.38 59.4101 100.33 59.3801ZM100.93 53.5601C100.91 53.5601 100.89 53.6601 100.86 53.8601C100.83 54.0601 100.81 54.28 100.79 54.52C100.76 54.76 100.74 54.9802 100.73 55.1702C100.71 55.3602 100.72 55.4602 100.74 55.4602C100.76 55.4602 100.78 55.3602 100.82 55.1602C100.85 54.9602 100.88 54.74 100.9 54.5C100.93 54.26 100.94 54.0401 100.95 53.8501C100.95 53.6601 100.95 53.5601 100.93 53.5601ZM101.3 66.8601C101.35 66.8601 101.38 66.83 101.39 66.76C101.4 66.69 101.4 66.61 101.39 66.52C101.38 66.43 101.37 66.34 101.34 66.25C101.32 66.16 101.31 66.09 101.3 66.05C101.28 65.94 101.23 65.85 101.15 65.79C101.07 65.73 101 65.65 100.95 65.55L101.3 66.8601ZM100.98 59.9001C101.03 59.9001 101.07 59.8801 101.12 59.8401C101.16 59.8001 101.2 59.7101 101.23 59.5801C101.26 59.4501 101.3 59.25 101.33 58.98C101.36 58.71 101.4 58.3602 101.44 57.9202C101.49 57.4802 101.54 56.93 101.6 56.27C101.66 55.61 101.73 54.8201 101.81 53.8901V53.8301C101.8 53.7901 101.77 53.7302 101.73 53.6602C101.68 53.5902 101.66 53.5801 101.64 53.6301L100.98 59.9001ZM101.16 64.7002C101.2 64.4302 101.23 64.11 101.24 63.75C101.25 63.39 101.25 63.0402 101.25 62.7002C101.25 62.3602 101.25 62.05 101.24 61.77C101.23 61.49 101.24 61.3002 101.25 61.2002L101.19 61.1501C101.17 61.1501 101.14 61.18 101.12 61.24C101.09 61.3 101.07 61.3702 101.06 61.4502C101.04 61.5302 101.03 61.6102 101.02 61.6902C101.01 61.7702 101 61.8401 101 61.9001L101.16 64.7002ZM101.72 60.9402C101.68 60.9402 101.66 60.96 101.66 61C101.66 61.04 101.68 61.0601 101.72 61.0601C101.75 61.0601 101.77 61.04 101.77 61C101.77 60.96 101.75 60.9402 101.72 60.9402ZM101.71 60.1501C101.68 60.1501 101.67 60.1702 101.68 60.2202C101.69 60.2602 101.71 60.29 101.74 60.29C101.78 60.29 101.8 60.2702 101.79 60.2202C101.77 60.1702 101.75 60.1501 101.71 60.1501Z" fill="currentColor"/>
<path d="M106.28 67.9702C106.26 67.7702 106.21 67.47 106.15 67.09C106.08 66.71 105.99 66.19 105.87 65.55C105.75 64.91 105.61 64.1201 105.45 63.1701C105.29 62.2301 105.1 61.09 104.9 59.77C105.84 59.75 106.54 59.7302 107.02 59.7202C107.49 59.7002 107.92 59.6901 108.3 59.6801L107.05 67.9602H106.28V67.9702ZM106.43 57.6701C106 57.6801 105.69 57.57 105.5 57.33C105.31 57.1 105.21 56.82 105.2 56.5C105.19 56.18 105.27 55.86 105.43 55.54C105.59 55.22 105.81 54.98 106.08 54.81C106.45 54.71 106.76 54.7 107.01 54.77C107.26 54.84 107.46 54.9801 107.61 55.1601C107.75 55.3401 107.83 55.56 107.85 55.82C107.87 56.07 107.83 56.32 107.73 56.57C107.63 56.82 107.48 57.0399 107.26 57.2399C107.05 57.4499 106.77 57.5901 106.43 57.6701ZM105.44 60.3C105.44 60.33 105.45 60.3801 105.46 60.4501C105.47 60.5201 105.48 60.6001 105.49 60.6901C105.5 60.7801 105.51 60.8601 105.52 60.9301C105.53 61.0001 105.54 61.05 105.54 61.08C105.56 61.21 105.59 61.38 105.62 61.58C105.65 61.78 105.68 61.9701 105.72 62.1601C105.76 62.3501 105.8 62.5801 105.85 62.8601L106 62.9702C106.01 62.9402 106.03 62.89 106.06 62.83C106.09 62.76 106.12 62.6901 106.16 62.6201C106.19 62.5401 106.23 62.4701 106.26 62.4001C106.29 62.3301 106.32 62.28 106.34 62.25V62.2001C106.32 62.0801 106.28 61.9801 106.23 61.9101C106.18 61.8401 106.12 61.7802 106.07 61.7202C106.01 61.6602 105.96 61.6 105.91 61.54C105.86 61.48 105.83 61.38 105.82 61.27C105.8 61.1 105.81 60.93 105.84 60.76C105.87 60.59 105.88 60.42 105.86 60.25L105.44 60.3ZM106.14 64.5C106.19 64.39 106.25 64.26 106.31 64.1C106.37 63.95 106.39 63.8001 106.37 63.6701L106.06 63.7299L106.14 64.5ZM106.68 55.2399C106.47 55.2899 106.3 55.4 106.2 55.55C106.09 55.71 106.06 55.9001 106.1 56.1101L106.12 56.1301V56.1401L106.38 55.6701C106.38 55.6601 106.39 55.6501 106.41 55.6501C106.43 55.6501 106.45 55.6401 106.47 55.6301C106.49 55.6301 106.52 55.6301 106.55 55.6201C106.58 55.6201 106.6 55.6101 106.61 55.6101C106.64 55.6301 106.68 55.6501 106.72 55.6601L106.84 55.6901C106.86 55.6801 106.89 55.64 106.93 55.58C106.97 55.51 107 55.4601 107.02 55.4301V55.3701C107 55.2901 106.95 55.2399 106.88 55.2299C106.8 55.2199 106.74 55.2199 106.68 55.2399ZM106.89 56.56C106.81 56.54 106.73 56.5601 106.65 56.6201C106.57 56.6801 106.5 56.75 106.43 56.83C106.35 56.93 106.27 57.0401 106.2 57.1701L106.23 57.31C106.37 57.28 106.52 57.2301 106.67 57.1601C106.82 57.0901 106.95 57.0101 107.07 56.9101C107.19 56.8101 107.28 56.69 107.35 56.56C107.42 56.43 107.43 56.2901 107.4 56.1301C107.4 56.1301 107.4 56.1 107.39 56.08C107.38 56.05 107.37 56.04 107.37 56.04L106.89 56.56ZM106.63 66.6401C106.66 66.2801 106.67 65.93 106.66 65.58C106.65 65.23 106.63 64.88 106.58 64.54L106.41 64.59L106.63 66.6401ZM106.95 60.3901H107.01C107.06 60.3701 107.1 60.35 107.12 60.33C107.14 60.31 107.17 60.2702 107.19 60.2102L106.95 60.3901ZM107.04 64.2001C107.02 64.1901 107.01 64.21 107 64.25C106.99 64.29 106.99 64.3401 107 64.3901C107 64.4401 107.02 64.49 107.03 64.53C107.05 64.58 107.06 64.59 107.08 64.57C107.11 64.54 107.12 64.4701 107.11 64.3701C107.11 64.2801 107.09 64.2201 107.04 64.2001ZM107.14 63.7202C107.11 63.7302 107.1 63.75 107.1 63.79C107.1 63.83 107.12 63.84 107.15 63.84C107.18 63.83 107.19 63.8 107.19 63.76C107.18 63.73 107.17 63.7102 107.14 63.7202ZM107.58 61.3901C107.55 61.4001 107.54 61.4299 107.54 61.4799C107.55 61.5199 107.56 61.54 107.59 61.53C107.62 61.52 107.63 61.4901 107.63 61.4501C107.63 61.3901 107.61 61.3801 107.58 61.3901Z" fill="currentColor"/>
<path d="M110.93 67.9601C110.33 67.7701 109.88 67.4399 109.59 66.9799C109.3 66.5199 109.13 66.0101 109.08 65.4301C109.03 64.8601 109.09 64.26 109.25 63.63C109.41 63.01 109.65 62.43 109.96 61.9C110.27 61.37 110.64 60.9199 111.07 60.5599C111.5 60.1899 111.95 59.9801 112.43 59.9201C112.79 59.8801 113.11 59.8901 113.4 59.9701C113.69 60.0401 113.94 60.1299 114.16 60.2399C114.37 60.3399 114.55 60.4499 114.69 60.5499C114.83 60.6499 114.92 60.7199 114.97 60.7499L115.02 60.4401L115.69 60.4899L115.64 62.11L114.97 62.0299C114.96 61.9499 114.96 61.8401 114.98 61.7001C114.99 61.5601 115.01 61.45 115.02 61.37C114.97 61.27 114.84 61.1599 114.64 61.0399C114.44 60.9199 114.21 60.8199 113.95 60.7599C113.69 60.6899 113.44 60.6701 113.18 60.6901C112.93 60.7101 112.72 60.8099 112.55 60.9799C112.31 61.2399 112.1 61.5799 111.92 61.9899C111.75 62.3999 111.61 62.8399 111.52 63.2899C111.43 63.7399 111.37 64.2001 111.36 64.6701C111.34 65.1301 111.37 65.5501 111.44 65.9201C111.51 66.2901 111.61 66.6 111.76 66.84C111.91 67.08 112.1 67.2099 112.33 67.2299C112.62 67.2799 112.93 67.2899 113.27 67.2499C113.61 67.2199 113.94 67.1201 114.26 66.9701C114.58 66.8201 114.85 66.6 115.09 66.33C115.33 66.06 115.47 65.7099 115.53 65.2899L116.11 65.32C116.04 65.9 115.84 66.3799 115.53 66.7499C115.21 67.1199 114.82 67.41 114.34 67.61C113.87 67.81 113.33 67.9399 112.74 67.9899C112.16 68.0199 111.55 68.0201 110.93 67.9601ZM109.99 66.4401C109.97 66.4301 109.95 66.4401 109.94 66.4601C109.92 66.4901 109.92 66.5199 109.92 66.5499C109.92 66.5899 109.93 66.62 109.94 66.65C109.96 66.68 109.97 66.6901 109.99 66.6801C110.03 66.6601 110.05 66.6199 110.05 66.5599C110.06 66.5099 110.03 66.4701 109.99 66.4401ZM110.15 66.8099C110.13 66.7999 110.11 66.81 110.1 66.84C110.08 66.87 110.08 66.9101 110.08 66.9501C110.08 66.9901 110.09 67.0299 110.1 67.0599C110.12 67.0899 110.13 67.1 110.15 67.09C110.2 67.07 110.23 67.0201 110.23 66.9501C110.22 66.8801 110.2 66.8299 110.15 66.8099ZM110.28 67.15C110.24 67.15 110.22 67.1701 110.22 67.2201C110.22 67.2601 110.24 67.2899 110.28 67.2899C110.32 67.2899 110.34 67.2601 110.34 67.2201C110.34 67.1701 110.33 67.15 110.28 67.15ZM110.44 67.35C110.46 67.42 110.5 67.4601 110.55 67.4701C110.6 67.4801 110.66 67.4899 110.72 67.4899H110.87C110.8 67.4399 110.73 67.4 110.68 67.38C110.62 67.35 110.56 67.34 110.49 67.34C110.48 67.34 110.48 67.34 110.48 67.34C110.48 67.34 110.47 67.35 110.46 67.35H110.44ZM111.06 62.2999C111.03 62.3799 110.99 62.49 110.95 62.62C110.91 62.75 110.86 62.8899 110.82 63.0399C110.78 63.1899 110.74 63.3299 110.72 63.4799C110.69 63.6199 110.67 63.74 110.67 63.85H111.01L111.06 62.2999ZM111 66.1701H111.18C111.18 66.0001 111.16 65.82 111.13 65.65C111.09 65.48 111.05 65.31 111 65.15V66.1701ZM111.16 66.8099C111.19 66.8699 111.22 66.9101 111.25 66.9201C111.28 66.9401 111.32 66.9401 111.37 66.9401C111.41 66.9401 111.45 66.9599 111.48 67.0099C111.51 67.0599 111.54 67.1 111.56 67.15C111.58 67.2 111.6 67.2399 111.61 67.2699C111.62 67.2999 111.63 67.2899 111.63 67.2599C111.63 67.2299 111.62 67.18 111.59 67.11C111.56 67.04 111.53 66.96 111.5 66.89C111.47 66.81 111.43 66.7501 111.39 66.6901C111.35 66.6301 111.31 66.6 111.28 66.6C111.19 66.6 111.15 66.62 111.18 66.65C111.2 66.7 111.2 66.7499 111.16 66.8099Z" fill="currentColor"/>
<path d="M124.69 67.9002C124.26 67.8602 123.88 67.7301 123.53 67.5201C123.18 67.3101 122.93 67.04 122.76 66.73C122.59 66.41 122.53 66.0702 122.59 65.6902C122.64 65.3102 122.85 64.9401 123.22 64.5701L123.48 64.9102C123.42 64.9602 123.34 65.0801 123.25 65.2701C123.16 65.4601 123.12 65.6602 123.13 65.8902C123.14 66.1102 123.23 66.3301 123.41 66.5501C123.58 66.7601 123.9 66.9201 124.34 67.0201C124.65 67.0201 124.96 67.0003 125.28 66.9503C125.6 66.9003 125.89 66.8202 126.16 66.6902C126.42 66.5602 126.64 66.3802 126.81 66.1502C126.98 65.9202 127.06 65.61 127.06 65.24C127.11 64.97 127.04 64.7702 126.84 64.6302C126.64 64.4902 126.38 64.3701 126.05 64.2901C125.72 64.2001 125.36 64.1301 124.97 64.0701C124.57 64.0101 124.2 63.9301 123.86 63.8201C123.52 63.7101 123.24 63.5702 123.01 63.3902C122.79 63.2102 122.68 62.9602 122.69 62.6302C122.61 62.2202 122.67 61.8202 122.87 61.4402C123.07 61.0502 123.34 60.7102 123.7 60.4202C124.05 60.1302 124.45 59.9101 124.9 59.7501C125.36 59.5901 125.81 59.5401 126.26 59.5901C126.72 59.6101 127.09 59.6901 127.37 59.8201C127.65 59.9501 127.86 60.1201 128.01 60.3301C128.16 60.5301 128.24 60.76 128.27 60.99C128.3 61.23 128.28 61.4703 128.23 61.7003H127.82C127.86 61.5603 127.86 61.3903 127.82 61.2003C127.78 61.0103 127.7 60.8302 127.59 60.6602C127.48 60.4802 127.33 60.3403 127.15 60.2203C126.97 60.1003 126.76 60.0301 126.51 60.0201C126.25 60.0201 125.99 60.1001 125.75 60.2701C125.51 60.4401 125.3 60.6502 125.12 60.8902C124.94 61.1302 124.79 61.4002 124.67 61.6902C124.55 61.9702 124.49 62.24 124.46 62.49C124.44 62.74 124.47 62.9502 124.56 63.1202C124.65 63.2902 124.8 63.3902 125.01 63.4102C125.93 63.4902 126.64 63.6301 127.16 63.8301C127.67 64.0301 128.06 64.2501 128.31 64.5001C128.57 64.7501 128.72 65.0001 128.78 65.2601C128.84 65.5201 128.87 65.7502 128.87 65.9402C128.7 66.4502 128.44 66.8402 128.09 67.1202C127.74 67.4002 127.37 67.6 126.96 67.73C126.55 67.86 126.14 67.9302 125.74 67.9402C125.32 67.9402 124.97 67.9302 124.69 67.9002ZM123.8 62.6902C123.8 62.7702 123.8 62.8502 123.8 62.9302C123.8 63.0102 123.84 63.0802 123.92 63.1502C123.92 63.1102 123.93 63.0102 123.94 62.8502C123.96 62.6902 123.97 62.5201 123.98 62.3401C124 62.1601 124.01 61.9901 124.03 61.8401C124.04 61.6901 124.05 61.5801 124.05 61.5301V61.49V61.4302C124.01 61.4902 123.97 61.5803 123.94 61.7003C123.91 61.8203 123.88 61.9401 123.86 62.0601C123.84 62.1801 123.82 62.3002 123.81 62.4202C123.81 62.5202 123.8 62.6102 123.8 62.6902ZM125.63 67.1602C125.4 67.1602 125.16 67.18 124.92 67.23C124.68 67.28 124.46 67.3202 124.25 67.3702C124.28 67.3702 124.35 67.3702 124.46 67.3802C124.57 67.3902 124.64 67.3902 124.67 67.3902C124.9 67.3902 125.08 67.3802 125.24 67.3702C125.39 67.3502 125.57 67.2902 125.77 67.1802C125.76 67.1802 125.74 67.1802 125.7 67.1702C125.68 67.1602 125.65 67.1602 125.63 67.1602ZM127.33 66.48C127.3 66.48 127.28 66.4901 127.28 66.5201C127.28 66.5501 127.3 66.5701 127.33 66.5701C127.35 66.5701 127.36 66.5501 127.36 66.5201C127.36 66.4901 127.35 66.48 127.33 66.48ZM127.55 64.4302C127.52 64.4302 127.5 64.45 127.5 64.48C127.5 64.51 127.52 64.5301 127.55 64.5301C127.57 64.5301 127.58 64.51 127.58 64.48C127.58 64.45 127.57 64.4302 127.55 64.4302ZM127.65 64.5301C127.62 64.5301 127.6 64.5501 127.6 64.5801C127.6 64.6201 127.62 64.6302 127.65 64.6302C127.68 64.6302 127.69 64.6101 127.69 64.5801C127.7 64.5501 127.68 64.5301 127.65 64.5301ZM127.65 65.3001H127.75V65.1902L127.65 65.3001Z" fill="currentColor"/>
<path d="M131.69 59.78L131.41 61.77C131.65 61.61 131.91 61.4102 132.18 61.1802C132.44 60.9502 132.72 60.73 132.99 60.53C133.27 60.32 133.55 60.14 133.84 60C134.13 59.86 134.44 59.79 134.75 59.79C135.08 59.75 135.32 59.8701 135.47 60.1401C135.62 60.4201 135.72 60.79 135.77 61.26C135.82 61.73 135.82 62.2701 135.79 62.8701C135.76 63.4801 135.73 64.0902 135.71 64.7102C135.69 65.3302 135.69 65.93 135.7 66.51C135.72 67.08 135.79 67.58 135.91 67.98H133.53C133.6 67.68 133.68 67.3201 133.77 66.8701C133.86 66.4301 133.94 65.9602 134.01 65.4602C134.09 64.9602 134.16 64.4602 134.22 63.9502C134.29 63.4402 134.34 62.97 134.37 62.55C134.4 62.12 134.42 61.7602 134.41 61.4602C134.4 61.1602 134.37 60.9701 134.31 60.8901C134.27 60.7901 134.21 60.7001 134.14 60.6301C134.07 60.5601 133.94 60.5601 133.73 60.6501C133.53 60.7301 133.25 60.9102 132.88 61.2002C132.51 61.4802 132.02 61.92 131.4 62.51L130.3 67.9602L129.57 68.02L129.25 59.8501L131.69 59.78ZM129.58 61.6602C129.58 61.8302 129.59 62.0001 129.62 62.1501C129.65 62.3001 129.68 62.4701 129.74 62.6401C129.81 62.5601 129.85 62.4902 129.86 62.4202C129.87 62.3502 129.88 62.2702 129.88 62.1802C129.88 62.0802 129.86 61.9701 129.83 61.8401C129.79 61.7201 129.71 61.6602 129.58 61.6602ZM129.78 64.8401C129.76 64.8201 129.74 64.8502 129.73 64.9202C129.72 65.0002 129.71 65.0802 129.71 65.1702C129.71 65.2602 129.71 65.3502 129.73 65.4202C129.74 65.5002 129.76 65.52 129.78 65.49C129.82 65.44 129.84 65.3302 129.84 65.1602C129.84 65.0002 129.82 64.8901 129.78 64.8401ZM130.1 63.04C129.96 63.13 129.87 63.2501 129.86 63.3901C129.84 63.5301 129.83 63.6801 129.83 63.8301C129.83 63.8501 129.83 63.91 129.84 64.01C129.84 64.11 129.85 64.1802 129.85 64.2102C129.91 64.0602 129.97 63.8902 130.03 63.7102C130.09 63.5302 130.12 63.3402 130.12 63.1602C130.12 63.1602 130.12 63.1301 130.11 63.1001C130.1 63.0701 130.1 63.05 130.1 63.04ZM129.98 60.9602C130.01 60.9002 130.07 60.7901 130.15 60.6501C130.23 60.5101 130.27 60.38 130.27 60.27C130.25 60.27 130.22 60.27 130.17 60.28C130.13 60.29 130.08 60.2901 130.03 60.3101C129.98 60.3201 129.94 60.3401 129.9 60.3601C129.86 60.3801 129.85 60.4002 129.85 60.4202L129.98 60.9602ZM129.9 67.54C130.04 67.42 130.13 67.2501 130.17 67.0601C130.21 66.8601 130.22 66.6602 130.21 66.4502C130.2 66.2402 130.18 66.0501 130.15 65.8701C130.12 65.6901 130.11 65.5602 130.12 65.4702C130.12 65.4502 130.12 65.4201 130.11 65.3701C130.11 65.3301 130.1 65.29 130.1 65.27C130.05 65.35 130.03 65.4701 130.05 65.6401C130.07 65.8001 130.08 65.9701 130.09 66.1301C130.1 66.3001 130.1 66.43 130.08 66.54C130.07 66.65 130.01 66.7002 129.9 66.6802V67.54ZM130.59 62.1702L130.87 62.03C130.9 61.9 130.94 61.7802 130.98 61.6602C131.01 61.5602 131.04 61.4601 131.06 61.3601C131.08 61.2601 131.11 61.1801 131.13 61.1101C131.13 61.0901 131.13 61.06 131.14 61.03C131.15 61 131.15 60.9802 131.15 60.9702H131L130.59 62.1702ZM134.38 66.4602C134.26 66.5202 134.18 66.6401 134.14 66.8101C134.1 66.9801 134.09 67.13 134.09 67.25H134.26C134.28 67.25 134.3 67.2202 134.32 67.1702C134.34 67.1202 134.36 67.06 134.37 66.99C134.38 66.92 134.39 66.85 134.39 66.77C134.39 66.69 134.4 66.6301 134.4 66.5901C134.4 66.5701 134.4 66.54 134.39 66.51C134.38 66.49 134.38 66.4702 134.38 66.4602ZM134.82 62.52C134.81 62.55 134.79 62.6002 134.77 62.6802C134.74 62.7602 134.72 62.8402 134.69 62.9202C134.66 63.0002 134.63 63.0802 134.61 63.1602C134.59 63.2402 134.57 63.2901 134.56 63.3201C134.56 63.3301 134.56 63.3501 134.55 63.3801C134.54 63.4101 134.54 63.4402 134.54 63.4602H134.82V62.52ZM134.61 64.3C134.58 64.3 134.56 64.3201 134.56 64.3701C134.56 64.4101 134.58 64.4402 134.61 64.4402C134.65 64.4402 134.67 64.4201 134.67 64.3701C134.67 64.3301 134.65 64.3 134.61 64.3ZM134.75 65.73C134.73 65.72 134.72 65.73 134.7 65.78C134.69 65.82 134.69 65.8702 134.69 65.9302C134.69 65.9902 134.7 66.0501 134.7 66.0901C134.71 66.1301 134.73 66.1501 134.75 66.1301C134.79 66.1001 134.81 66.0302 134.81 65.9302C134.81 65.8202 134.79 65.76 134.75 65.73ZM134.75 67.24C134.72 67.24 134.7 67.2601 134.7 67.3101C134.7 67.3501 134.72 67.3801 134.75 67.3801C134.78 67.3801 134.8 67.3601 134.8 67.3101C134.79 67.2601 134.78 67.24 134.75 67.24ZM135.07 60.5801C135.07 60.6201 135.06 60.69 135.05 60.79C135.03 60.89 135.02 61.0001 135.01 61.1101C135 61.2201 134.99 61.3302 134.97 61.4202C134.96 61.5202 134.95 61.5901 134.95 61.6301V61.7102V61.77C135.04 61.68 135.09 61.5602 135.09 61.4202C135.09 61.2802 135.09 61.15 135.09 61.04C135.09 61.01 135.09 60.9301 135.09 60.8201C135.08 60.6901 135.08 60.6201 135.07 60.5801ZM135.01 63.9202C134.98 63.9202 134.96 63.94 134.96 63.98C134.96 64.02 134.98 64.04 135.01 64.04C135.04 64.04 135.06 64.02 135.06 63.98C135.05 63.94 135.04 63.9202 135.01 63.9202Z" fill="currentColor"/>
<path d="M143.95 68.2202C143.64 68.2302 143.41 68.16 143.25 68C143.09 67.84 142.98 67.6502 142.9 67.4202C142.83 67.1902 142.78 66.9502 142.76 66.6802C142.74 66.4102 142.71 66.1802 142.68 65.9602C142.19 66.6002 141.55 67.1102 140.78 67.4702C140 67.8402 139.14 68 138.19 67.98C137.69 67.89 137.32 67.6701 137.09 67.3401C136.86 67.0001 136.73 66.6001 136.71 66.1201C136.69 65.6401 136.76 65.1201 136.93 64.5601C137.1 64.0001 137.34 63.4602 137.64 62.9302C137.95 62.4102 138.31 61.92 138.73 61.49C139.15 61.05 139.6 60.72 140.08 60.49C140.56 60.26 141.05 60.1602 141.56 60.1902C142.07 60.2202 142.58 60.4401 143.07 60.8501L143.38 59.75L145.75 59.98C145.63 60.31 145.47 60.6901 145.28 61.1301C145.09 61.5701 144.9 62.04 144.71 62.53C144.52 63.02 144.33 63.51 144.15 64.01C143.97 64.51 143.83 64.9802 143.74 65.4202C143.64 65.8602 143.6 66.2501 143.6 66.5801C143.6 66.9201 143.69 67.1701 143.87 67.3401C144.11 67.4501 144.36 67.4802 144.59 67.4202C144.83 67.3602 145.05 67.2501 145.25 67.0901C145.45 66.9301 145.63 66.74 145.78 66.51C145.93 66.28 146.03 66.0601 146.09 65.8301L146.47 66.4102C146.4 66.6702 146.27 66.9201 146.08 67.1301C145.89 67.3501 145.68 67.5402 145.43 67.7002C145.19 67.8602 144.93 67.9901 144.66 68.0801C144.42 68.1701 144.17 68.2202 143.95 68.2202ZM137.42 65.7102C137.4 65.7002 137.39 65.7601 137.41 65.8801C137.42 66.0001 137.44 66.14 137.47 66.29C137.5 66.44 137.53 66.5702 137.57 66.6902C137.61 66.8102 137.64 66.8701 137.66 66.8601C137.68 66.8501 137.68 66.7902 137.67 66.6702C137.66 66.5502 137.63 66.42 137.6 66.29C137.57 66.15 137.54 66.0302 137.5 65.9102C137.47 65.7802 137.44 65.7202 137.42 65.7102ZM137.61 64.8501C137.61 64.9201 137.63 64.97 137.68 64.99C137.73 65.01 137.79 65.03 137.87 65.05C137.92 64.91 137.96 64.7902 137.98 64.7102C138.01 64.6202 138.02 64.5201 138.02 64.4001C138.02 64.3801 138.02 64.3501 138.01 64.3201C138.01 64.2901 138 64.27 138 64.26C137.91 64.33 137.82 64.42 137.73 64.53C137.65 64.63 137.61 64.7401 137.61 64.8501ZM137.91 65.9602C137.91 66.0202 137.95 66.13 138.02 66.3C138.1 66.46 138.19 66.63 138.3 66.8C138.41 66.97 138.52 67.12 138.63 67.24C138.74 67.37 138.84 67.4302 138.92 67.4302C138.94 67.4302 138.98 67.4202 139.04 67.4102C139.1 67.4002 139.17 67.3901 139.24 67.3701C139.31 67.3501 139.38 67.3401 139.45 67.3201C139.52 67.3101 139.56 67.29 139.6 67.28C139.62 67.28 139.64 67.26 139.67 67.23C139.7 67.2 139.72 67.1702 139.72 67.1602C139.5 67.1002 139.27 67.0302 139.05 66.9402C138.82 66.8502 138.61 66.7501 138.41 66.6301C138.41 66.6301 138.39 66.61 138.33 66.53C138.28 66.45 138.22 66.38 138.16 66.29L137.91 65.9602ZM138.52 65.0701C138.52 65.5901 138.66 65.98 138.94 66.25C139.22 66.51 139.61 66.6501 140.12 66.6501C140.58 66.6501 140.97 66.5501 141.29 66.3701C141.61 66.1801 141.92 65.9201 142.21 65.5801C142.19 65.5201 142.19 65.4002 142.21 65.2102C142.23 65.0202 142.26 64.8 142.3 64.55C142.34 64.3 142.39 64.03 142.44 63.74C142.5 63.45 142.55 63.1701 142.59 62.8901C142.64 62.6201 142.68 62.3601 142.71 62.1301C142.75 61.9001 142.76 61.7101 142.76 61.5801C142.53 61.1601 142.25 60.9 141.92 60.79C141.6 60.69 141.27 60.6901 140.94 60.8101C140.6 60.9301 140.27 61.1402 139.95 61.4302C139.62 61.7302 139.34 62.08 139.11 62.48C138.88 62.88 138.7 63.31 138.57 63.77C138.48 64.2 138.45 64.6401 138.52 65.0701ZM143.93 61.51C143.86 61.51 143.79 61.5702 143.72 61.6902C143.65 61.8102 143.58 61.9702 143.51 62.1702C143.45 62.3602 143.38 62.57 143.32 62.8C143.26 63.03 143.2 63.2402 143.16 63.4502C143.12 63.6502 143.08 63.84 143.05 64C143.02 64.16 143.01 64.2701 143.01 64.3201C143.12 63.9501 143.21 63.6602 143.27 63.4402C143.33 63.2202 143.39 63.0201 143.45 62.8401C143.51 62.6501 143.53 62.5701 143.53 62.5701L144.06 61.53C144.05 61.53 144.03 61.53 144 61.52C143.98 61.51 143.95 61.51 143.93 61.51ZM143.86 60.23C143.84 60.23 143.81 60.25 143.76 60.29C143.72 60.33 143.67 60.3802 143.62 60.4202C143.57 60.4702 143.54 60.51 143.5 60.54C143.47 60.58 143.46 60.5901 143.49 60.5901C143.5 60.5901 143.53 60.58 143.57 60.54C143.62 60.51 143.66 60.4602 143.71 60.4202C143.75 60.3802 143.79 60.33 143.82 60.29C143.86 60.24 143.87 60.23 143.86 60.23ZM143.93 60.99C143.94 60.99 143.95 60.99 143.97 61C143.99 61.01 144 61.01 144.01 61.01C144.17 60.95 144.33 60.88 144.47 60.8C144.61 60.73 144.72 60.6501 144.79 60.5801C144.86 60.5101 144.89 60.4502 144.88 60.4102C144.86 60.3702 144.78 60.3601 144.64 60.3801L143.93 60.99Z" fill="currentColor"/>
<path d="M148.38 67.9601C147.78 67.7701 147.33 67.4399 147.04 66.9799C146.75 66.5199 146.58 66.0101 146.53 65.4301C146.48 64.8601 146.54 64.26 146.7 63.63C146.86 63.01 147.1 62.43 147.41 61.9C147.72 61.37 148.09 60.9199 148.52 60.5599C148.95 60.1899 149.4 59.9801 149.88 59.9201C150.24 59.8801 150.56 59.8901 150.85 59.9701C151.14 60.0401 151.39 60.1299 151.61 60.2399C151.82 60.3399 152 60.4499 152.14 60.5499C152.28 60.6499 152.37 60.7199 152.42 60.7499L152.46 60.4401L153.13 60.4899L153.08 62.11L152.41 62.0299C152.4 61.9499 152.4 61.8401 152.42 61.7001C152.44 61.5601 152.45 61.45 152.46 61.37C152.41 61.27 152.28 61.1599 152.08 61.0399C151.88 60.9199 151.65 60.8199 151.39 60.7599C151.13 60.6899 150.88 60.6701 150.62 60.6901C150.37 60.7101 150.16 60.8099 149.99 60.9799C149.75 61.2399 149.54 61.5799 149.36 61.9899C149.19 62.3999 149.05 62.8399 148.96 63.2899C148.87 63.7399 148.82 64.2001 148.8 64.6701C148.78 65.1301 148.81 65.5501 148.87 65.9201C148.94 66.2901 149.04 66.6 149.19 66.84C149.34 67.08 149.53 67.2099 149.76 67.2299C150.05 67.2799 150.36 67.2899 150.7 67.2499C151.04 67.2199 151.37 67.1201 151.69 66.9701C152.01 66.8201 152.28 66.6 152.51 66.33C152.75 66.06 152.89 65.7099 152.95 65.2899L153.53 65.32C153.46 65.9 153.27 66.3799 152.95 66.7499C152.63 67.1199 152.24 67.41 151.77 67.61C151.3 67.81 150.76 67.9399 150.17 67.9899C149.61 68.0199 149 68.0201 148.38 67.9601ZM147.45 66.4401C147.43 66.4301 147.41 66.4401 147.4 66.4601C147.39 66.4901 147.38 66.5199 147.38 66.5499C147.38 66.5899 147.39 66.62 147.4 66.65C147.42 66.68 147.43 66.6901 147.45 66.6801C147.49 66.6601 147.51 66.6199 147.51 66.5599C147.51 66.5099 147.49 66.4701 147.45 66.4401ZM147.6 66.8099C147.58 66.7999 147.56 66.81 147.55 66.84C147.54 66.87 147.53 66.9101 147.53 66.9501C147.53 66.9901 147.54 67.0299 147.55 67.0599C147.57 67.0899 147.58 67.1 147.6 67.09C147.65 67.07 147.68 67.0201 147.68 66.9501C147.68 66.8801 147.65 66.8299 147.6 66.8099ZM147.74 67.15C147.7 67.15 147.68 67.1701 147.68 67.2201C147.68 67.2601 147.7 67.2899 147.74 67.2899C147.78 67.2899 147.8 67.2601 147.8 67.2201C147.8 67.1701 147.78 67.15 147.74 67.15ZM147.9 67.35C147.92 67.42 147.95 67.4601 148.01 67.4701C148.06 67.4801 148.12 67.4899 148.18 67.4899H148.33C148.26 67.4399 148.2 67.4 148.14 67.38C148.09 67.35 148.02 67.34 147.95 67.34C147.94 67.34 147.94 67.34 147.94 67.34L147.93 67.35H147.9ZM148.52 62.2999C148.49 62.3799 148.45 62.49 148.41 62.62C148.37 62.75 148.32 62.8899 148.28 63.0399C148.24 63.1899 148.2 63.3299 148.17 63.4799C148.14 63.6199 148.12 63.74 148.12 63.85H148.46L148.52 62.2999ZM148.46 66.1701H148.64C148.64 66.0001 148.62 65.82 148.59 65.65C148.55 65.48 148.51 65.31 148.46 65.15V66.1701ZM148.61 66.8099C148.64 66.8699 148.67 66.9101 148.7 66.9201C148.73 66.9401 148.77 66.9401 148.82 66.9401C148.86 66.9401 148.9 66.9599 148.93 67.0099C148.96 67.0599 148.98 67.1 149.01 67.15C149.03 67.2 149.05 67.2399 149.06 67.2699C149.07 67.2999 149.08 67.2899 149.08 67.2599C149.08 67.2299 149.07 67.18 149.04 67.11C149.02 67.04 148.98 66.96 148.95 66.89C148.92 66.81 148.88 66.7501 148.84 66.6901C148.8 66.6301 148.76 66.6 148.73 66.6C148.64 66.6 148.61 66.62 148.63 66.65C148.66 66.7 148.65 66.7499 148.61 66.8099Z" fill="currentColor"/>
<path d="M154.44 52.9702H157.84L156.28 62.3301L160.1 59.5801L160.36 59.9602L156.83 62.6802L162 66.9402L160.98 67.9202L156.04 63.3101L155.14 67.9702H154.33L154.44 52.9702ZM154.8 60.5601C154.69 60.6701 154.63 60.7701 154.62 60.8401C154.61 60.9201 154.62 60.9901 154.65 61.0701C154.68 61.1501 154.72 61.2301 154.77 61.3301C154.81 61.4301 154.84 61.5502 154.84 61.7002C154.84 61.7402 154.84 61.8202 154.85 61.9402C154.86 62.0602 154.86 62.1302 154.86 62.1602C154.94 62.0302 154.98 61.9101 154.99 61.8101C154.99 61.7101 154.99 61.62 154.97 61.52C154.95 61.42 154.92 61.3202 154.88 61.2202C154.84 61.1102 154.83 60.9801 154.83 60.8201C154.83 60.8001 154.83 60.7602 154.83 60.6902C154.82 60.6302 154.82 60.5801 154.8 60.5601ZM154.83 58.48C154.83 58.51 154.84 58.5702 154.85 58.6602C154.86 58.7502 154.88 58.8402 154.9 58.9402C154.92 59.0402 154.93 59.1402 154.94 59.2202C154.95 59.3102 154.96 59.3701 154.97 59.3901C155.09 59.2401 155.15 59.11 155.15 59.02C155.15 58.92 155.13 58.83 155.08 58.74C155.03 58.65 154.98 58.5502 154.93 58.4502C154.88 58.3502 154.85 58.22 154.85 58.05C154.85 58.01 154.85 57.92 154.83 57.79C154.82 57.66 154.81 57.57 154.8 57.53C154.71 57.59 154.66 57.6502 154.65 57.7002C154.64 57.7502 154.65 57.8001 154.68 57.8501C154.71 57.9001 154.74 57.96 154.78 58.04C154.82 58.12 154.83 58.2101 154.83 58.3201V58.48ZM154.85 53.6101L154.65 53.8401C154.65 53.9101 154.67 53.9901 154.72 54.0701C154.77 54.1501 154.81 54.23 154.86 54.3C154.91 54.38 154.94 54.45 154.96 54.52C154.98 54.59 154.96 54.6402 154.91 54.6802L154.85 53.6101ZM154.67 56.74C154.76 56.7 154.81 56.63 154.81 56.54V56.48L154.67 56.74ZM154.68 66.1501L154.8 65.8901C154.81 65.8701 154.83 65.8002 154.85 65.6802C154.87 65.5602 154.89 65.42 154.92 65.25C154.94 65.08 154.97 64.91 154.99 64.73C155.02 64.55 155.04 64.39 155.06 64.25C155.06 64.25 155.06 64.2001 155.07 64.1401C155.07 64.0701 155.08 64.02 155.08 63.98C155.08 63.96 155.08 63.9201 155.07 63.8501C155.06 63.7801 155.06 63.7402 155.06 63.7202L154.71 64.4502L154.68 66.1501ZM154.8 55.1702C154.76 55.1502 154.74 55.17 154.74 55.23C154.74 55.29 154.76 55.31 154.8 55.29C154.85 55.28 154.88 55.26 154.88 55.23C154.88 55.2 154.86 55.1802 154.8 55.1702ZM154.94 67.51C155.06 67.22 155.13 66.9502 155.15 66.7002C155.17 66.4402 155.17 66.2301 155.16 66.0601C155.14 65.8901 155.13 65.7502 155.12 65.6602C155.11 65.5702 155.13 65.5401 155.2 65.5701H155.08L154.94 67.1401V67.51ZM155.48 57.0801C155.44 57.0801 155.42 57.1001 155.42 57.1401C155.42 57.1801 155.44 57.2002 155.48 57.2002C155.51 57.2002 155.53 57.1801 155.53 57.1401C155.53 57.1001 155.51 57.0801 155.48 57.0801ZM156 57.4001C155.98 57.4501 155.94 57.5201 155.88 57.6201C155.82 57.7201 155.76 57.8302 155.7 57.9502C155.64 58.0802 155.58 58.2101 155.54 58.3501C155.49 58.4901 155.47 58.61 155.47 58.73C155.47 58.74 155.47 58.76 155.48 58.79C155.48 58.82 155.49 58.8401 155.49 58.8401C155.61 58.6701 155.73 58.47 155.84 58.26C155.95 58.05 156.01 57.8301 156.01 57.5901V57.4001H156ZM155.8 53.5801C155.73 53.5601 155.67 53.5601 155.63 53.5901C155.59 53.6201 155.56 53.6502 155.55 53.7002C155.54 53.7502 155.52 53.8001 155.52 53.8501C155.52 53.9001 155.51 53.9402 155.51 53.9702C155.51 53.9902 155.51 54.0401 155.52 54.1101C155.53 54.1801 155.53 54.23 155.53 54.25C155.54 54.23 155.56 54.1901 155.58 54.1401C155.61 54.0901 155.63 54.03 155.66 53.98C155.69 53.93 155.72 53.8701 155.74 53.8201C155.76 53.7701 155.78 53.7302 155.79 53.7102V53.6802C155.79 53.6702 155.79 53.6602 155.8 53.6602L155.81 53.6501L155.79 53.6201V53.5801H155.8ZM156.26 53.3701C156.19 53.3701 156.12 53.4802 156.04 53.7102C155.97 53.9302 155.89 54.1902 155.83 54.4702C155.76 54.7502 155.71 55.03 155.67 55.29C155.63 55.55 155.61 55.71 155.61 55.77V55.8301L156.47 53.3901C156.45 53.3901 156.42 53.3901 156.37 53.3801C156.31 53.3701 156.28 53.3701 156.26 53.3701ZM155.74 56.6201C155.65 56.6601 155.6 56.7301 155.6 56.8201V56.8801L155.74 56.6201ZM155.97 58.6802C155.95 58.6702 155.93 58.6802 155.92 58.7102C155.91 58.7402 155.9 58.7701 155.9 58.8101C155.9 58.8501 155.91 58.8802 155.92 58.9102C155.94 58.9402 155.95 58.9502 155.97 58.9402C156.01 58.9202 156.03 58.8801 156.03 58.8101C156.03 58.7501 156.01 58.7002 155.97 58.6802ZM156.12 56.48C156.08 56.48 156.06 56.5 156.06 56.55C156.06 56.59 156.08 56.6201 156.12 56.6201C156.15 56.6201 156.17 56.6 156.17 56.55C156.17 56.5 156.15 56.48 156.12 56.48ZM156.72 56.6802C156.64 56.7302 156.56 56.8202 156.48 56.9502C156.4 57.0802 156.34 57.2301 156.28 57.3801C156.23 57.5301 156.18 57.6901 156.15 57.8401C156.11 58.0001 156.1 58.1302 156.1 58.2202V58.4202L156.64 56.9702L156.72 56.6802ZM156.24 55.76C156.22 55.75 156.2 55.7701 156.19 55.8101C156.18 55.8501 156.17 55.9002 156.17 55.9602C156.17 56.0202 156.18 56.0701 156.19 56.1201C156.2 56.1601 156.22 56.1802 156.24 56.1602C156.29 56.1302 156.32 56.0602 156.32 55.9602C156.32 55.8602 156.29 55.79 156.24 55.76ZM156.75 55.99C156.8 55.64 156.83 55.3501 156.85 55.1001C156.86 54.8501 156.87 54.6402 156.88 54.4702C156.89 54.2902 156.89 54.15 156.91 54.03C156.92 53.91 156.95 53.8002 156.99 53.7002C156.98 53.7002 156.95 53.7002 156.91 53.6902C156.86 53.6902 156.82 53.6802 156.77 53.6802C156.73 53.6802 156.68 53.6902 156.65 53.7002C156.61 53.7102 156.6 53.74 156.6 53.78L156.66 55.9001L156.75 55.99ZM157.33 63.77C157.36 63.81 157.41 63.8802 157.48 63.9702C157.55 64.0602 157.63 64.15 157.71 64.24C157.8 64.33 157.89 64.41 157.98 64.49C158.07 64.56 158.15 64.6001 158.22 64.6001C158.25 64.6001 158.29 64.6302 158.34 64.6902C158.39 64.7502 158.45 64.8201 158.51 64.8901C158.57 64.9601 158.63 65.0201 158.68 65.0701C158.73 65.1201 158.77 65.1401 158.8 65.1101C158.75 65.0701 158.67 64.9801 158.56 64.8401C158.45 64.7001 158.33 64.5501 158.19 64.3801C158.06 64.2201 157.92 64.0702 157.79 63.9502C157.66 63.8202 157.54 63.76 157.44 63.76C157.43 63.76 157.41 63.76 157.38 63.76C157.36 63.75 157.34 63.76 157.33 63.77ZM159.61 65.55C159.75 65.74 159.91 65.9401 160.09 66.1501C160.27 66.3601 160.45 66.5402 160.62 66.7102C160.79 66.8702 160.92 66.9502 161 66.9502C161.16 66.9502 161.24 66.9301 161.24 66.8801C161.23 66.8301 161.23 66.7401 161.23 66.6001C161.23 66.5801 161.21 66.56 161.17 66.55C161.13 66.54 161.11 66.53 161.11 66.52L160.19 65.99C160.03 65.83 159.89 65.6901 159.79 65.5801C159.69 65.4701 159.56 65.3402 159.39 65.1802C159.41 65.2402 159.48 65.36 159.61 65.55Z" fill="currentColor"/>
<path d="M164.22 67.9002C163.79 67.8602 163.4 67.7301 163.06 67.5201C162.71 67.3101 162.46 67.04 162.29 66.73C162.12 66.41 162.06 66.0702 162.11 65.6902C162.16 65.3102 162.37 64.9401 162.74 64.5701L163 64.9102C162.94 64.9602 162.86 65.0801 162.77 65.2701C162.68 65.4601 162.64 65.6602 162.65 65.8902C162.66 66.1102 162.75 66.3301 162.93 66.5501C163.1 66.7601 163.41 66.9201 163.86 67.0201C164.17 67.0201 164.48 67.0003 164.8 66.9503C165.12 66.9003 165.41 66.8202 165.68 66.6902C165.95 66.5602 166.16 66.3802 166.33 66.1502C166.5 65.9202 166.58 65.61 166.58 65.24C166.63 64.97 166.56 64.7702 166.36 64.6302C166.16 64.4902 165.9 64.3701 165.58 64.2901C165.25 64.2001 164.89 64.1301 164.49 64.0701C164.09 64.0101 163.72 63.9301 163.38 63.8201C163.04 63.7101 162.76 63.5702 162.53 63.3902C162.31 63.2102 162.2 62.9602 162.21 62.6302C162.13 62.2202 162.19 61.8202 162.39 61.4402C162.59 61.0502 162.86 60.7102 163.22 60.4202C163.57 60.1302 163.97 59.9101 164.43 59.7501C164.88 59.5901 165.34 59.5401 165.78 59.5901C166.24 59.6101 166.61 59.6901 166.89 59.8201C167.17 59.9501 167.38 60.1201 167.53 60.3301C167.68 60.5301 167.76 60.76 167.79 60.99C167.82 61.23 167.8 61.4703 167.75 61.7003H167.34C167.38 61.5603 167.38 61.3903 167.34 61.2003C167.3 61.0103 167.22 60.8302 167.11 60.6602C167 60.4802 166.85 60.3403 166.68 60.2203C166.5 60.1003 166.29 60.0301 166.05 60.0201C165.78 60.0201 165.53 60.1001 165.29 60.2701C165.05 60.4401 164.84 60.6502 164.66 60.8902C164.48 61.1302 164.32 61.4002 164.21 61.6902C164.09 61.9702 164.02 62.24 164 62.49C163.98 62.74 164.01 62.9502 164.1 63.1202C164.19 63.2902 164.34 63.3902 164.55 63.4102C165.47 63.4902 166.18 63.6301 166.7 63.8301C167.21 64.0301 167.6 64.2501 167.85 64.5001C168.1 64.7501 168.26 65.0001 168.32 65.2601C168.38 65.5201 168.41 65.7502 168.41 65.9402C168.24 66.4502 167.98 66.8402 167.63 67.1202C167.28 67.4002 166.91 67.6 166.5 67.73C166.09 67.86 165.69 67.9302 165.28 67.9402C164.85 67.9402 164.51 67.9302 164.22 67.9002ZM163.34 62.6902C163.34 62.7702 163.34 62.8502 163.34 62.9302C163.34 63.0102 163.38 63.0802 163.46 63.1502C163.46 63.1102 163.47 63.0102 163.49 62.8502C163.5 62.6902 163.52 62.5201 163.53 62.3401C163.55 62.1601 163.56 61.9901 163.58 61.8401C163.59 61.6901 163.6 61.5801 163.6 61.5301V61.49V61.4302C163.56 61.4902 163.52 61.5803 163.49 61.7003C163.46 61.8203 163.43 61.9401 163.4 62.0601C163.37 62.1801 163.36 62.3002 163.35 62.4202C163.34 62.5202 163.34 62.6102 163.34 62.6902ZM165.17 67.1602C164.94 67.1602 164.7 67.18 164.46 67.23C164.22 67.28 164 67.3202 163.8 67.3702C163.83 67.3702 163.9 67.3702 164.01 67.3802C164.12 67.3902 164.19 67.3902 164.23 67.3902C164.45 67.3902 164.64 67.3802 164.79 67.3702C164.94 67.3502 165.12 67.2902 165.33 67.1802C165.32 67.1802 165.3 67.1802 165.26 67.1702C165.22 67.1602 165.19 67.1602 165.17 67.1602ZM166.87 66.48C166.84 66.48 166.83 66.4901 166.83 66.5201C166.83 66.5501 166.84 66.5701 166.87 66.5701C166.89 66.5701 166.9 66.5501 166.9 66.5201C166.9 66.4901 166.89 66.48 166.87 66.48ZM167.08 64.4302C167.05 64.4302 167.03 64.45 167.03 64.48C167.03 64.51 167.05 64.5301 167.08 64.5301C167.1 64.5301 167.11 64.51 167.11 64.48C167.11 64.45 167.1 64.4302 167.08 64.4302ZM167.19 64.5301C167.16 64.5301 167.15 64.5501 167.15 64.5801C167.15 64.6201 167.16 64.6302 167.19 64.6302C167.22 64.6302 167.24 64.6101 167.24 64.5801C167.23 64.5501 167.22 64.5301 167.19 64.5301ZM167.19 65.3001H167.3V65.1902L167.19 65.3001Z" fill="currentColor"/>
</svg>
