<?xml version="1.0" standalone="no"?>
<!DOCTYPE svg PUBLIC "-//W3C//DTD SVG 20010904//EN"
 "http://www.w3.org/TR/2001/REC-SVG-20010904/DTD/svg10.dtd">
<svg version="1.0" xmlns="http://www.w3.org/2000/svg"
 width="189.000000pt" height="189.000000pt" viewBox="0 0 189.000000 189.000000"
 preserveAspectRatio="xMidYMid meet">

<g transform="translate(0.000000,189.000000) scale(0.100000,-0.100000)"
fill="#000000" stroke="none">
<path d="M30 1290 c-19 -19 -22 -30 -17 -71 12 -100 51 -133 97 -84 l25 26 19
-83 c11 -49 19 -129 21 -198 2 -127 12 -160 50 -160 28 0 45 25 46 67 0 15 4
37 9 48 7 18 9 18 20 -10 25 -65 59 -80 101 -46 21 17 26 17 55 3 39 -18 72
-11 113 24 l31 26 0 -60 c0 -42 5 -65 16 -76 36 -37 68 -9 84 72 6 31 15 66
19 77 9 21 8 23 27 -40 15 -48 74 -42 74 7 0 15 4 18 18 13 9 -4 31 -10 47
-12 17 -3 35 -11 41 -19 16 -20 57 -3 95 37 24 26 30 28 48 17 15 -9 28 -10
49 -2 24 9 30 8 45 -13 24 -31 50 -29 78 5 l23 28 35 -18 c49 -25 75 -22 115
12 38 34 66 31 66 -6 0 -20 24 -44 45 -44 3 0 25 21 49 47 l43 46 22 -69 c12
-38 33 -85 46 -105 38 -58 115 -84 179 -60 l25 10 -28 73 c-24 62 -32 73 -54
76 -32 4 -55 38 -83 127 l-23 70 24 41 24 42 -54 36 c-30 20 -58 36 -62 36 -5
0 -21 -20 -36 -45 -26 -40 -31 -44 -50 -33 -12 6 -26 17 -30 24 -11 18 -27 18
-48 -2 -16 -14 -23 -15 -49 -4 -43 18 -89 5 -132 -37 l-37 -36 6 36 c11 68
-20 147 -58 147 -5 0 2 -10 16 -23 32 -27 42 -88 27 -156 l-10 -43 46 50 c53
57 89 71 138 53 28 -10 38 -10 56 3 20 14 24 14 43 -3 35 -31 53 -33 72 -5 10
14 25 34 34 46 l16 21 46 -32 c26 -18 47 -37 47 -42 0 -6 -9 -24 -20 -39 l-20
-28 25 -80 c29 -91 56 -132 89 -132 18 0 26 -11 46 -66 26 -74 22 -84 -38 -84
-76 0 -127 53 -163 170 -13 41 -24 77 -26 79 -1 2 -24 -19 -51 -48 -53 -56
-82 -61 -82 -12 0 18 -8 30 -24 37 -21 10 -27 8 -45 -16 -29 -40 -72 -47 -123
-20 -30 16 -44 18 -46 10 -8 -23 -43 -51 -60 -48 -9 2 -22 18 -28 36 -10 33
-10 33 -29 12 -22 -24 -53 -26 -70 -3 -12 16 -15 14 -40 -15 -15 -18 -40 -39
-55 -47 -25 -13 -29 -13 -34 0 -3 9 -19 15 -38 15 -19 0 -43 7 -55 15 -24 16
-27 14 -37 -27 -11 -49 -51 -30 -58 26 -1 16 -9 31 -15 34 -15 4 -27 -23 -45
-102 -25 -113 -78 -101 -78 17 l0 71 -27 -26 c-56 -52 -95 -60 -135 -28 l-25
19 -24 -25 c-40 -43 -70 -25 -100 61 -13 37 -26 20 -35 -45 -9 -68 -14 -80
-33 -80 -37 0 -45 26 -43 136 2 74 -2 117 -13 150 -9 26 -17 71 -18 100 -2 60
-12 66 -47 29 -13 -14 -29 -25 -37 -25 -21 0 -43 44 -49 96 -12 96 52 108 205
40 93 -43 102 -42 195 6 77 40 152 47 243 23 63 -16 71 -17 100 -2 49 26 62
-12 17 -54 -24 -23 -33 -24 -142 -24 -103 0 -121 -3 -152 -22 -75 -47 -95 -55
-159 -62 -50 -5 -66 -10 -64 -21 7 -72 15 -91 28 -80 8 7 22 10 30 6 8 -3 26
0 40 6 19 8 31 8 51 -1 22 -9 29 -8 51 9 33 26 73 25 107 -1 l26 -21 31 26
c17 14 41 26 53 26 15 0 27 9 34 25 7 14 22 30 34 35 17 6 19 9 6 9 -10 1 -27
-12 -40 -29 -12 -16 -30 -30 -39 -30 -10 0 -31 -11 -46 -24 l-29 -25 -30 20
c-37 24 -82 24 -109 -1 -18 -17 -25 -18 -52 -8 -18 7 -38 8 -49 3 -27 -12 -68
-12 -76 0 -4 6 -8 22 -8 36 0 25 3 26 65 31 55 5 74 12 121 44 l56 39 117 0
c121 0 151 8 171 45 13 24 13 57 0 65 -5 3 -24 -2 -42 -11 -30 -16 -36 -16
-101 1 -91 24 -166 17 -243 -23 -93 -48 -102 -49 -196 -6 -106 48 -167 55
-198 24z"/>
<path d="M456 1241 c-100 -52 -134 -52 -225 -6 -113 58 -185 45 -179 -30 3
-35 6 -40 28 -40 18 0 26 6 28 23 5 31 51 29 103 -5 58 -38 140 -43 200 -13
24 13 58 32 74 44 26 18 44 21 147 21 91 0 121 3 132 15 14 13 7 15 -57 16
-40 0 -94 4 -122 8 -46 7 -56 4 -129 -33z"/>
<path d="M1152 1207 c-6 -7 -16 -26 -22 -42 l-11 -29 -19 31 c-37 62 -67 55
-103 -25 -26 -57 -26 -58 -65 -54 -22 2 -49 -1 -60 -7 -15 -8 -22 -8 -25 2 -3
7 -6 4 -6 -7 -1 -14 3 -16 17 -10 9 5 40 9 68 9 l51 0 29 60 c37 75 59 79 91
16 l22 -44 11 27 c5 15 10 30 10 34 0 3 10 16 22 29 12 13 17 23 11 23 -6 0
-15 -6 -21 -13z"/>
<path d="M184 1165 c-9 -22 4 -92 23 -129 13 -24 16 -57 15 -156 l-1 -125 19
90 c24 109 25 174 5 222 -8 19 -15 47 -15 62 0 32 -37 61 -46 36z"/>
<path d="M1177 1153 c-8 -16 -24 -56 -37 -90 -12 -35 -26 -63 -30 -63 -4 0
-10 19 -13 43 -11 70 -27 117 -42 117 -21 0 -24 -9 -36 -116 -6 -55 -20 -119
-30 -143 -11 -24 -17 -46 -15 -48 9 -9 58 89 63 127 7 51 19 43 26 -16 6 -55
28 -84 50 -65 8 6 25 40 37 74 13 34 26 66 30 70 5 5 7 -33 6 -84 -1 -82 1
-94 17 -97 15 -3 17 8 17 126 0 183 -12 228 -43 165z"/>
<path d="M805 1128 c11 -6 23 -16 27 -22 5 -7 8 -8 8 0 0 15 -22 34 -39 34
-12 -1 -11 -4 4 -12z"/>
<path d="M1616 1096 c-15 -26 -32 -46 -39 -46 -7 0 -30 12 -50 26 -54 36 -58
22 -9 -25 l42 -40 -25 -53 c-26 -55 -32 -98 -15 -98 6 0 10 4 10 9 0 5 18 32
41 61 51 65 58 60 98 -69 34 -109 65 -148 124 -158 42 -6 42 -5 23 42 -11 24
-21 35 -36 35 -22 0 -34 22 -74 133 -10 26 -29 61 -42 76 l-24 29 30 37 c17
21 29 39 28 39 -2 1 -15 11 -29 24 l-26 23 -27 -45z"/>
<path d="M756 1084 c-8 -21 -7 -21 24 -26 19 -2 25 1 25 17 0 26 -40 33 -49 9z"/>
<path d="M1304 1052 c-29 -23 -44 -54 -44 -89 0 -86 108 -110 153 -33 17 29
18 29 48 12 29 -16 31 -16 44 2 8 11 15 24 15 30 0 5 -6 1 -14 -9 -14 -19 -15
-19 -35 -1 -11 10 -23 37 -27 62 l-6 44 -57 0 c-38 0 -63 -6 -77 -18z m96 -57
c0 -26 -36 -75 -55 -75 -22 0 -45 40 -36 64 17 46 91 55 91 11z"/>
<path d="M644 1017 c-25 -22 -26 -26 -16 -57 7 -18 12 -80 12 -138 0 -58 2
-103 5 -100 4 4 35 159 35 176 0 1 9 2 20 2 24 0 40 28 40 70 0 70 -44 91 -96
47z m64 -51 c2 -9 -2 -24 -9 -33 -12 -13 -14 -12 -21 13 -4 15 -5 31 -2 36 9
14 29 4 32 -16z"/>
<path d="M847 1015 c-33 -33 -42 -85 -23 -124 24 -45 79 -56 109 -23 29 32 20
56 -9 27 -23 -23 -53 -18 -64 10 -17 46 24 104 64 89 15 -6 40 28 29 40 -3 3
-23 6 -43 6 -27 0 -45 -7 -63 -25z"/>
<path d="M1733 1022 c-3 -7 -1 -18 5 -24 8 -8 9 -4 5 13 l-6 24 19 -23 19 -23
0 25 c0 18 -5 24 -19 23 -10 -1 -21 -7 -23 -15z"/>
<path d="M474 996 l-38 -36 -13 25 c-16 30 -34 32 -58 5 -14 -16 -21 -17 -32
-8 -11 9 -18 8 -30 -5 -14 -14 -14 -19 0 -49 8 -18 21 -52 28 -75 8 -30 18
-43 30 -43 16 0 17 8 12 73 -5 60 -3 75 11 87 24 19 36 -1 36 -63 0 -84 65
-123 125 -75 52 40 71 127 38 166 -33 39 -67 38 -109 -2z m81 -13 c29 -29 -1
-114 -45 -126 -43 -11 -68 51 -30 75 12 8 20 24 20 40 0 33 28 38 55 11z"/>
<path d="M754 1003 c3 -16 8 -65 12 -110 3 -46 10 -83 14 -83 5 0 11 25 14 55
3 30 9 80 12 110 l5 55 -31 0 c-29 0 -31 -2 -26 -27z"/>
<path d="M996 743 c2 -27 8 -61 13 -78 9 -29 9 -29 10 12 1 23 7 44 14 46 10
4 10 6 0 6 -8 1 -13 14 -13 31 0 19 -5 30 -14 30 -10 0 -12 -12 -10 -47z"/>
<path d="M1543 716 c2 -60 4 -71 13 -55 9 18 12 19 23 5 8 -9 18 -16 24 -16 6
0 -2 14 -19 32 -16 17 -24 29 -19 26 6 -4 10 12 10 38 0 35 -3 44 -17 44 -14
0 -16 -10 -15 -74z"/>
<path d="M1055 760 c-3 -5 -2 -10 4 -10 5 0 13 5 16 10 3 6 2 10 -4 10 -5 0
-13 -4 -16 -10z"/>
<path d="M760 706 c-20 -25 -8 -61 20 -64 15 -2 20 0 13 5 -6 5 -15 21 -18 36
-6 21 -4 27 10 27 12 0 15 -5 11 -16 -5 -14 -4 -15 9 -4 8 7 12 16 9 21 -8 14
-40 11 -54 -5z"/>
<path d="M840 713 c0 -5 4 -15 10 -23 5 -9 5 -19 -2 -27 -6 -8 -8 -17 -4 -20
4 -4 11 -1 15 6 6 9 11 10 15 2 4 -6 12 -11 17 -11 6 0 3 7 -5 16 -12 11 -13
20 -6 34 13 25 13 39 -1 20 -8 -11 -12 -12 -16 -2 -5 13 -23 17 -23 5z"/>
<path d="M922 708 c-32 -32 0 -84 37 -61 24 15 21 67 -4 71 -11 1 -26 -3 -33
-10z m36 -25 c-4 -39 -28 -42 -28 -4 0 21 5 31 16 31 11 0 14 -8 12 -27z"/>
<path d="M1054 704 c3 -9 6 -28 7 -42 0 -24 1 -25 9 -7 14 34 12 65 -6 65 -11
0 -14 -5 -10 -16z"/>
<path d="M1098 696 c-14 -33 -4 -56 24 -56 20 1 21 2 6 11 -22 12 -23 33 -2
53 14 15 14 16 -1 16 -8 0 -20 -11 -27 -24z"/>
<path d="M1237 713 c-12 -11 -8 -33 6 -33 7 0 13 9 13 20 0 20 -7 25 -19 13z"/>
<path d="M1290 696 c0 -14 5 -28 10 -31 6 -3 10 -3 10 2 0 4 3 18 6 31 5 16 2
22 -10 22 -10 0 -16 -9 -16 -24z"/>
<path d="M1338 680 c2 -22 8 -40 13 -40 5 0 9 18 9 40 0 26 -5 40 -13 40 -9 0
-11 -12 -9 -40z"/>
<path d="M1387 702 c-23 -25 -22 -62 1 -62 10 0 23 5 30 12 9 9 12 9 12 0 0
-7 8 -12 18 -12 14 0 15 2 2 10 -12 7 -13 15 -3 40 9 24 9 30 -1 30 -7 0 -17
-14 -22 -32 -12 -40 -34 -49 -34 -14 0 14 8 30 18 35 9 6 12 11 6 11 -6 0 -18
-8 -27 -18z"/>
<path d="M1480 706 c-27 -34 12 -88 43 -57 7 7 3 8 -12 4 -20 -5 -22 -2 -19
23 2 20 8 29 20 28 10 -1 15 2 12 7 -8 14 -30 11 -44 -5z"/>
<path d="M1625 710 c-7 -11 2 -30 13 -30 4 0 8 9 8 20 0 21 -11 26 -21 10z"/>
<path d="M1258 659 c-12 -13 -14 -19 -5 -19 22 0 43 18 32 28 -6 5 -17 2 -27
-9z"/>
<path d="M1665 670 c10 -16 -26 -25 -37 -9 -8 12 -9 11 -5 -1 5 -21 51 -19 55
3 2 9 -2 17 -8 17 -6 0 -8 -5 -5 -10z"/>
</g>
</svg>
